<?xml version="1.0" encoding="utf-8"?>
<!-- Generator: Adobe Illustrator 15.0.3, SVG Export Plug-In . SVG Version: 6.00 Build 0)  -->
<!DOCTYPE svg PUBLIC "-//W3C//DTD SVG 1.1//EN" "http://www.w3.org/Graphics/SVG/1.1/DTD/svg11.dtd">
<svg version="1.1" id="Ebene_1" xmlns="http://www.w3.org/2000/svg" xmlns:xlink="http://www.w3.org/1999/xlink" x="0px" y="0px"
	 width="322.482px" height="320.982px" viewBox="0 0 322.482 320.982" enable-background="new 0 0 322.482 320.982"
	 xml:space="preserve">
<path d="M162.458,77.692c-46.6,0-84.375,37.775-84.375,84.375s37.775,84.375,84.375,84.375s84.375-37.775,84.375-84.375
	S209.057,77.692,162.458,77.692z M234.854,180.976l-12.909-0.652l-0.638,2.704l14.377,9.346l0,0l-16.838-3.698l-1.178,2.451
	l8.973,9.168l-11.922-4.171l-0.691,0.771l8.076,10.348l-11.676-5.541l-1.625,2.253l9.705,14.132l0,0l-14.139-9.859l-2.025,1.813
	l4.781,11.907l-9.416-8.416l-0.936,0.448l3.502,12.651l-8.667-9.591l-2.364,1.46l3.56,16.771l0,0l-9.29-14.518l-2.567,0.899
	l-0.138,12.83l-5.48-11.38l-1.033,0.056l-1.607,13.027l-4.336-12.173l-2.746,0.443l-3.129,16.856l0,0l-3.026-16.967l-2.716-0.154
	l-5.036,11.802l-0.71-12.61l-0.978-0.344l-6.468,11.419l0.653-12.906l-2.71-0.64l-9.339,14.376l0,0l3.695-16.833l-2.448-1.18
	l-9.168,8.975l4.168-11.923l-0.772-0.688l-10.345,8.07l5.542-11.67l-2.256-1.631l-14.13,9.708l0,0l9.855-14.137l-1.812-2.029
	l-11.901,4.784l8.412-9.42l-0.449-0.933l-12.648,3.501l9.589-8.663l-1.461-2.373l-16.772,3.564l0,0l14.514-9.29l-0.892-2.568
	l-12.829-0.133l11.376-5.485l-0.059-1.033l-13.023-1.607l12.172-4.332l-0.442-2.751l-16.857-3.127l0,0l16.964-3.027l0.157-2.714
	l-11.799-5.034l12.607-0.712l0.342-0.978l-11.415-6.468l12.903,0.65l0.643-2.708l-14.378-9.338l0,0l16.832,3.694l1.182-2.445
	l-8.973-9.169l11.921,4.166l0.688-0.771l-8.069-10.346l11.671,5.543l1.63-2.257l-9.709-14.13l0,0l14.136,9.854l2.028-1.808
	l-4.782-11.902l9.418,8.411l0.932-0.45l-3.497-12.646l8.663,9.587l2.371-1.461l-3.563-16.771l0,0l9.29,14.513l2.567-0.896
	l0.136-12.824l5.483,11.374l1.032-0.059l1.608-13.021l4.333,12.172l2.751-0.442l3.126-16.857l0,0l3.025,16.962l2.713,0.156
	l5.037-11.798l0.713,12.607l0.975,0.34l6.469-11.411l-0.654,12.903l2.703,0.637l9.344-14.374l0,0l-3.693,16.836l2.443,1.179
	l9.174-8.974l-4.172,11.922l0.775,0.691l10.345-8.082l-5.542,11.679l2.252,1.624l14.136-9.704l0,0l-9.859,14.141l1.809,2.023
	l11.908-4.777l-8.417,9.417l0.448,0.934l12.653-3.506l-9.588,8.67l1.46,2.364l16.772-3.561l0,0l-14.522,9.293l0.901,2.566
	l12.826,0.139l-11.377,5.48l0.059,1.03l13.029,1.605l-12.178,4.341l0.444,2.741l16.859,3.131l0,0l-16.976,3.027l-0.146,2.714
	l11.799,5.037l-12.611,0.711l-0.341,0.977L234.854,180.976z"/>
<polygon fill="none" points="236.385,172.823 224.587,167.785 224.734,165.071 241.707,162.043 241.707,162.043 224.849,158.912 
	224.405,156.171 236.583,151.831 223.552,150.225 223.493,149.194 234.872,143.714 222.045,143.575 221.144,141.009 
	235.665,131.716 235.665,131.716 218.894,135.277 217.434,132.912 227.022,124.242 214.369,127.749 213.921,126.816 
	222.338,117.398 210.429,122.176 208.62,120.152 218.478,106.01 218.478,106.01 204.344,115.715 202.091,114.092 207.634,102.412 
	197.288,110.494 196.513,109.803 200.685,97.882 191.51,106.854 189.068,105.677 192.76,88.839 192.76,88.839 183.417,103.214 
	180.714,102.577 181.37,89.674 174.899,101.085 173.924,100.745 173.212,88.137 168.175,99.935 165.461,99.779 162.436,82.816 
	162.436,82.816 159.309,99.674 156.558,100.117 152.224,87.945 150.617,100.967 149.585,101.025 144.101,89.65 143.965,102.475 
	141.398,103.37 132.109,88.856 132.109,88.856 135.672,105.628 133.301,107.09 124.639,97.503 128.135,110.147 127.204,110.597 
	117.785,102.185 122.567,114.089 120.539,115.897 106.404,106.043 106.404,106.043 116.112,120.174 114.482,122.431 102.81,116.888 
	110.88,127.233 110.191,128.005 98.271,123.839 107.244,133.007 106.062,135.453 89.231,131.758 89.231,131.758 103.609,141.098 
	102.965,143.806 90.062,143.156 101.478,149.622 101.135,150.6 88.528,151.311 100.326,156.345 100.17,159.06 83.207,162.086 
	83.207,162.086 100.064,165.214 100.506,167.965 88.334,172.297 101.356,173.904 101.415,174.937 90.039,180.423 102.867,180.555 
	103.76,183.124 89.247,192.413 89.247,192.413 106.018,188.849 107.479,191.222 97.89,199.885 110.538,196.385 110.987,197.317 
	102.575,206.736 114.477,201.952 116.288,203.982 106.433,218.118 106.433,218.118 120.563,208.411 122.82,210.042 117.278,221.712 
	127.623,213.641 128.395,214.33 124.227,226.253 133.395,217.277 135.843,218.458 132.147,235.29 132.147,235.29 141.487,220.915 
	144.197,221.555 143.544,234.462 150.011,223.042 150.989,223.386 151.699,235.997 156.735,224.195 159.451,224.349 
	162.477,241.314 162.477,241.314 165.606,224.46 168.352,224.016 172.688,236.189 174.296,223.162 175.329,223.106 180.809,234.486 
	180.947,221.656 183.514,220.757 192.804,235.272 192.804,235.272 189.244,218.503 191.609,217.043 200.276,226.634 
	196.774,213.982 197.71,213.534 207.126,221.95 202.344,210.044 204.37,208.229 218.509,218.087 218.509,218.087 208.804,203.956 
	210.429,201.704 222.106,207.245 214.028,196.896 214.719,196.125 226.641,200.296 217.669,191.128 218.846,188.677 
	235.684,192.374 235.684,192.374 221.307,183.029 221.945,180.325 234.854,180.976 223.434,174.51 223.774,173.533 "/>
<circle id="Innerster_Ring" fill="none" stroke="#000000" stroke-width="3.5" cx="162.444" cy="162.068" r="21.374"/>
<path id="Innerer_Ring" fill="none" stroke="#000000" stroke-width="3.5" d="M258.384,162.067c0,52.979-42.944,95.923-95.923,95.923
	c-52.981,0-95.925-42.943-95.925-95.923c0-52.977,42.942-95.922,95.925-95.922C215.438,66.145,258.384,109.091,258.384,162.067z"/>
<g>
	<path id="Innerer_Ring_1_" fill="none" d="M286.858,170.765c-4.808,68.702-64.396,120.498-133.1,115.693
		c-68.705-4.804-120.5-64.39-115.696-133.091c4.806-68.7,64.388-120.501,133.094-115.698
		C239.86,42.476,291.66,102.063,286.858,170.765z"/>
	<path d="M41.232,188.731c-0.188,0.104-0.342,0.167-0.464,0.189c-0.121,0.023-0.221,0.005-0.294-0.058
		c-0.074-0.063-0.135-0.178-0.179-0.342c-0.045-0.164-0.088-0.388-0.132-0.668c-0.043-0.279-0.071-0.505-0.084-0.674
		c-0.014-0.171-0.011-0.301,0.008-0.392c0.02-0.091,0.053-0.161,0.1-0.21c0.048-0.051,0.109-0.1,0.186-0.146l4.039-2.174l-1.14-7.3
		l-4.443-0.78c-0.086-0.015-0.162-0.039-0.229-0.075c-0.064-0.035-0.125-0.095-0.18-0.174c-0.054-0.078-0.104-0.196-0.146-0.353
		c-0.043-0.156-0.083-0.359-0.123-0.613c-0.041-0.262-0.062-0.479-0.065-0.648c-0.004-0.171,0.021-0.295,0.073-0.373
		c0.054-0.078,0.141-0.124,0.264-0.14c0.123-0.015,0.289-0.001,0.5,0.041l17.229,3.343c0.104,0.021,0.193,0.057,0.268,0.104
		c0.072,0.048,0.135,0.127,0.188,0.233s0.103,0.248,0.144,0.423s0.083,0.396,0.124,0.669c0.046,0.288,0.077,0.529,0.094,0.723
		c0.016,0.19,0.015,0.351-0.003,0.474c-0.02,0.123-0.056,0.223-0.113,0.296c-0.059,0.073-0.133,0.138-0.228,0.188L41.232,188.731z
		 M54.447,178.927l-0.002-0.014l-9.223-1.66l0.952,6.105L54.447,178.927z"/>
	<path d="M54.395,203.737c-1.467,0.463-2.809,0.678-4.021,0.646c-1.214-0.029-2.294-0.293-3.241-0.786
		c-0.946-0.494-1.765-1.208-2.451-2.146c-0.688-0.936-1.261-2.128-1.716-3.577l-1.129-3.59c-0.062-0.201-0.057-0.412,0.022-0.635
		c0.08-0.223,0.29-0.386,0.63-0.492l15.118-4.754c0.34-0.106,0.605-0.093,0.798,0.045c0.191,0.137,0.319,0.305,0.383,0.506
		l1.207,3.839c0.461,1.467,0.66,2.768,0.601,3.898c-0.062,1.133-0.341,2.152-0.836,3.062c-0.497,0.91-1.196,1.701-2.098,2.373
		C56.758,202.8,55.67,203.337,54.395,203.737z M53.557,201.396c0.918-0.289,1.735-0.67,2.454-1.146s1.29-1.046,1.715-1.712
		c0.423-0.666,0.68-1.421,0.771-2.266c0.089-0.846-0.05-1.853-0.417-3.021l-0.722-2.293l-13.192,4.146l0.729,2.318
		c0.34,1.082,0.764,1.953,1.268,2.61c0.505,0.656,1.113,1.146,1.831,1.469c0.715,0.322,1.532,0.476,2.453,0.459
		C51.368,201.946,52.405,201.758,53.557,201.396z"/>
	<path d="M51.129,217.393c-0.105,0.011-0.201,0.001-0.288-0.027c-0.086-0.03-0.17-0.089-0.253-0.177
		c-0.082-0.087-0.168-0.208-0.258-0.361c-0.09-0.155-0.191-0.353-0.309-0.592c-0.087-0.182-0.163-0.342-0.225-0.479
		c-0.062-0.139-0.106-0.261-0.139-0.366c-0.032-0.106-0.055-0.201-0.066-0.28c-0.014-0.079-0.016-0.152-0.006-0.219
		c0.009-0.064,0.029-0.123,0.062-0.175c0.032-0.051,0.074-0.104,0.128-0.16l12.343-12.405c0.148-0.152,0.278-0.26,0.388-0.315
		c0.109-0.06,0.21-0.063,0.306-0.019c0.093,0.048,0.188,0.146,0.285,0.306c0.096,0.156,0.211,0.375,0.347,0.654
		c0.111,0.23,0.194,0.418,0.247,0.562c0.055,0.143,0.082,0.258,0.084,0.349c0.002,0.09-0.015,0.166-0.049,0.229
		c-0.036,0.062-0.087,0.131-0.154,0.204l-11.255,11.088l0.006,0.014l15.601-2.022c0.104-0.02,0.189-0.025,0.264-0.021
		c0.073,0.005,0.146,0.041,0.22,0.106s0.151,0.171,0.235,0.312c0.084,0.143,0.188,0.338,0.305,0.585
		c0.124,0.255,0.211,0.463,0.263,0.621c0.052,0.157,0.061,0.277,0.028,0.358c-0.031,0.082-0.105,0.145-0.224,0.186
		c-0.117,0.041-0.282,0.071-0.495,0.095L51.129,217.393z"/>
	<path d="M62.947,236.205c-0.128,0.171-0.241,0.293-0.343,0.364c-0.103,0.07-0.198,0.095-0.292,0.066
		c-0.095-0.025-0.194-0.104-0.303-0.235s-0.24-0.315-0.396-0.553c-0.155-0.238-0.274-0.433-0.355-0.58
		c-0.081-0.148-0.132-0.271-0.153-0.358c-0.021-0.091-0.021-0.168,0.004-0.232c0.022-0.062,0.06-0.135,0.108-0.211L64,230.82
		l-4.053-6.18l-4.369,1.125c-0.083,0.021-0.163,0.029-0.238,0.023c-0.074-0.006-0.152-0.033-0.233-0.084
		c-0.083-0.05-0.176-0.138-0.278-0.261c-0.103-0.124-0.226-0.294-0.366-0.509c-0.146-0.223-0.255-0.41-0.329-0.562
		c-0.071-0.155-0.103-0.277-0.086-0.371c0.017-0.092,0.076-0.171,0.183-0.233c0.105-0.062,0.265-0.12,0.473-0.169l17.071-4.066
		c0.104-0.024,0.199-0.029,0.286-0.016c0.085,0.015,0.175,0.061,0.27,0.135c0.094,0.076,0.193,0.186,0.304,0.326
		c0.11,0.142,0.239,0.327,0.391,0.559c0.161,0.245,0.288,0.451,0.382,0.619c0.095,0.169,0.157,0.312,0.192,0.433
		c0.033,0.119,0.041,0.226,0.018,0.316c-0.021,0.091-0.064,0.18-0.128,0.266L62.947,236.205z M70.938,221.819l-0.007-0.013
		l-9.087,2.297l3.388,5.168L70.938,221.819z"/>
	<path d="M74.902,249.742c-0.136,0.122-0.271,0.202-0.409,0.242c-0.136,0.04-0.27,0.052-0.396,0.031
		c-0.127-0.02-0.247-0.062-0.356-0.13c-0.109-0.066-0.204-0.146-0.287-0.237l-0.522-0.581c-0.164-0.184-0.289-0.359-0.375-0.53
		c-0.085-0.171-0.135-0.362-0.146-0.574c-0.014-0.212,0.011-0.456,0.07-0.731c0.061-0.275,0.16-0.604,0.301-0.979l3.897-10.787
		c0.198-0.56,0.414-1.138,0.647-1.733c0.232-0.597,0.468-1.167,0.704-1.713l-0.018-0.021c-0.479,0.454-0.971,0.914-1.476,1.38
		c-0.505,0.465-1.011,0.925-1.514,1.377l-7.979,7.167c-0.048,0.043-0.106,0.07-0.176,0.081c-0.07,0.012-0.146-0.007-0.233-0.054
		c-0.086-0.048-0.186-0.119-0.304-0.216c-0.117-0.097-0.253-0.229-0.408-0.401c-0.155-0.173-0.273-0.322-0.356-0.449
		s-0.143-0.231-0.176-0.318c-0.035-0.086-0.042-0.163-0.022-0.23c0.02-0.068,0.05-0.124,0.098-0.167l12.2-10.957
		c0.271-0.245,0.536-0.342,0.791-0.291c0.253,0.051,0.464,0.168,0.628,0.352l0.775,0.863c0.184,0.203,0.318,0.391,0.408,0.558
		c0.089,0.168,0.145,0.343,0.164,0.521c0.021,0.18,0.006,0.383-0.042,0.608c-0.049,0.229-0.127,0.492-0.238,0.795l-3.02,8.312
		c-0.182,0.511-0.362,1.005-0.541,1.484c-0.177,0.479-0.355,0.949-0.534,1.406c-0.179,0.459-0.354,0.911-0.526,1.356
		c-0.171,0.445-0.346,0.892-0.523,1.336l0.01,0.012c0.524-0.497,1.079-1.01,1.657-1.535s1.139-1.03,1.677-1.516l7.172-6.44
		c0.048-0.043,0.104-0.067,0.172-0.076s0.146,0.009,0.238,0.05c0.092,0.041,0.193,0.109,0.308,0.21
		c0.114,0.1,0.253,0.238,0.412,0.418c0.144,0.158,0.259,0.302,0.349,0.43c0.089,0.127,0.147,0.235,0.177,0.328
		c0.027,0.093,0.033,0.172,0.019,0.236s-0.046,0.119-0.095,0.162L74.902,249.742z"/>
	<path d="M89.627,260.422c-0.094,0.112-0.181,0.207-0.257,0.286c-0.077,0.079-0.15,0.144-0.222,0.19
		c-0.069,0.049-0.142,0.086-0.209,0.111c-0.068,0.025-0.168,0.045-0.297,0.058s-0.366-0.004-0.711-0.047
		c-0.346-0.043-0.742-0.136-1.189-0.273c-0.449-0.143-0.93-0.344-1.44-0.607c-0.513-0.266-1.025-0.609-1.539-1.038
		c-0.888-0.735-1.565-1.551-2.034-2.438c-0.471-0.891-0.716-1.833-0.74-2.828c-0.022-0.996,0.182-2.03,0.615-3.104
		c0.433-1.073,1.109-2.163,2.027-3.27c0.943-1.134,1.929-2.022,2.957-2.668c1.03-0.646,2.063-1.056,3.104-1.232
		c1.04-0.178,2.062-0.122,3.067,0.166c1.005,0.287,1.955,0.803,2.849,1.545c0.396,0.327,0.749,0.684,1.062,1.066
		c0.312,0.385,0.579,0.765,0.803,1.141s0.396,0.739,0.521,1.094c0.124,0.354,0.191,0.615,0.209,0.789
		c0.016,0.175,0.018,0.299,0.005,0.371c-0.014,0.071-0.039,0.148-0.076,0.229c-0.039,0.081-0.089,0.173-0.154,0.271
		c-0.064,0.102-0.149,0.215-0.256,0.342c-0.116,0.142-0.224,0.255-0.319,0.342s-0.188,0.151-0.271,0.195
		c-0.084,0.043-0.157,0.062-0.224,0.062c-0.065,0-0.127-0.023-0.184-0.07c-0.1-0.082-0.182-0.266-0.243-0.55
		c-0.062-0.284-0.165-0.627-0.309-1.022c-0.141-0.397-0.355-0.831-0.643-1.302c-0.284-0.471-0.708-0.938-1.267-1.4
		c-0.609-0.506-1.265-0.846-1.965-1.018c-0.701-0.171-1.426-0.168-2.171,0.01c-0.745,0.179-1.498,0.525-2.258,1.044
		c-0.759,0.519-1.501,1.214-2.226,2.086c-0.722,0.866-1.265,1.71-1.628,2.53c-0.365,0.822-0.56,1.603-0.58,2.341
		c-0.021,0.738,0.129,1.435,0.448,2.086c0.319,0.652,0.803,1.247,1.445,1.781c0.544,0.452,1.077,0.781,1.596,0.984
		c0.519,0.204,0.989,0.344,1.413,0.415c0.426,0.073,0.784,0.119,1.08,0.14c0.296,0.02,0.495,0.071,0.603,0.16
		c0.051,0.042,0.084,0.087,0.102,0.139c0.019,0.051,0.014,0.114-0.016,0.19c-0.029,0.077-0.082,0.174-0.158,0.288
		C89.867,260.121,89.761,260.259,89.627,260.422z"/>
	<path d="M100.719,269.45c-0.089,0.14-0.175,0.256-0.257,0.351c-0.082,0.096-0.164,0.165-0.246,0.209
		c-0.083,0.046-0.159,0.067-0.229,0.066s-0.135-0.021-0.196-0.062l-7.199-4.574c-0.177-0.111-0.307-0.278-0.389-0.499
		c-0.083-0.221-0.026-0.481,0.164-0.782l8.5-13.376c0.191-0.303,0.404-0.461,0.639-0.479c0.234-0.02,0.44,0.027,0.618,0.142
		l7.118,4.521c0.062,0.039,0.106,0.091,0.138,0.153c0.03,0.062,0.039,0.139,0.024,0.229c-0.013,0.09-0.044,0.191-0.089,0.31
		c-0.047,0.116-0.121,0.253-0.219,0.406c-0.089,0.14-0.177,0.256-0.262,0.348c-0.086,0.092-0.166,0.161-0.236,0.207
		c-0.073,0.046-0.145,0.067-0.214,0.067c-0.069-0.002-0.137-0.021-0.198-0.062l-5.865-3.728l-2.99,4.705l5.03,3.196
		c0.062,0.039,0.107,0.093,0.136,0.159c0.028,0.065,0.041,0.143,0.037,0.227c-0.006,0.085-0.034,0.186-0.088,0.304
		c-0.054,0.117-0.127,0.25-0.22,0.396c-0.089,0.14-0.172,0.254-0.252,0.346c-0.079,0.092-0.156,0.154-0.229,0.194
		c-0.074,0.04-0.146,0.058-0.212,0.054c-0.067-0.007-0.133-0.027-0.194-0.066l-5.029-3.195l-3.41,5.366l5.945,3.777
		c0.062,0.039,0.108,0.091,0.14,0.151c0.03,0.063,0.044,0.143,0.041,0.23s-0.029,0.191-0.081,0.307
		C100.891,269.161,100.816,269.296,100.719,269.45z"/>
	<path d="M123.142,280.454c-0.028,0.066-0.07,0.12-0.127,0.154c-0.057,0.036-0.135,0.052-0.231,0.044
		c-0.101-0.007-0.223-0.028-0.365-0.062c-0.145-0.036-0.324-0.1-0.541-0.189c-0.199-0.085-0.366-0.167-0.503-0.249
		c-0.133-0.08-0.235-0.153-0.307-0.218c-0.069-0.063-0.112-0.131-0.126-0.193c-0.014-0.065-0.006-0.133,0.021-0.199l5.999-14.269
		l-0.024-0.012l-11.799,11.903c-0.051,0.049-0.106,0.084-0.17,0.106c-0.064,0.021-0.147,0.028-0.249,0.021s-0.216-0.03-0.343-0.068
		c-0.128-0.038-0.275-0.095-0.444-0.165c-0.178-0.074-0.325-0.146-0.445-0.218c-0.119-0.069-0.215-0.138-0.286-0.202
		c-0.073-0.063-0.122-0.129-0.149-0.188c-0.029-0.062-0.043-0.121-0.037-0.181l0.505-16.649l-0.013-0.005l-5.999,14.267
		c-0.027,0.067-0.069,0.119-0.127,0.155c-0.056,0.036-0.133,0.051-0.231,0.044c-0.101-0.008-0.225-0.029-0.371-0.066
		c-0.147-0.037-0.331-0.103-0.548-0.191c-0.209-0.09-0.379-0.174-0.509-0.251c-0.13-0.08-0.229-0.152-0.302-0.217
		c-0.069-0.063-0.109-0.129-0.117-0.191c-0.01-0.062,0-0.129,0.027-0.196l6.335-15.062c0.148-0.354,0.351-0.568,0.603-0.643
		c0.252-0.073,0.495-0.061,0.727,0.037l1.337,0.562c0.272,0.115,0.502,0.241,0.688,0.379c0.185,0.138,0.33,0.293,0.438,0.468
		c0.106,0.175,0.177,0.367,0.209,0.58c0.031,0.212,0.039,0.447,0.021,0.708l-0.305,13.832l0.063,0.025l9.845-9.773
		c0.202-0.214,0.395-0.386,0.581-0.517c0.188-0.132,0.367-0.222,0.546-0.271c0.177-0.05,0.356-0.062,0.539-0.041
		s0.38,0.077,0.597,0.168l1.4,0.59c0.128,0.055,0.242,0.124,0.342,0.211c0.101,0.088,0.174,0.188,0.222,0.303
		c0.048,0.113,0.071,0.243,0.071,0.388s-0.037,0.306-0.11,0.481L123.142,280.454z"/>
	<path d="M139.377,283.745c-0.038,0.16-0.08,0.299-0.126,0.415c-0.045,0.115-0.101,0.209-0.164,0.278
		c-0.062,0.068-0.128,0.116-0.193,0.139c-0.065,0.021-0.136,0.024-0.207,0.008l-8.306-1.94c-0.205-0.048-0.382-0.162-0.531-0.344
		c-0.149-0.181-0.187-0.444-0.104-0.793l3.607-15.432c0.081-0.349,0.229-0.569,0.443-0.665s0.426-0.119,0.63-0.071l8.212,1.92
		c0.07,0.018,0.131,0.051,0.182,0.1c0.051,0.05,0.083,0.118,0.101,0.207c0.018,0.088,0.021,0.194,0.018,0.319
		c-0.006,0.127-0.028,0.278-0.07,0.457c-0.038,0.16-0.082,0.299-0.133,0.413c-0.051,0.115-0.104,0.206-0.155,0.272
		c-0.054,0.068-0.113,0.112-0.18,0.135c-0.065,0.021-0.135,0.024-0.207,0.009l-6.767-1.582l-1.271,5.43l5.805,1.356
		c0.07,0.018,0.131,0.052,0.181,0.104c0.047,0.055,0.084,0.121,0.107,0.201c0.022,0.08,0.028,0.187,0.019,0.314
		c-0.013,0.129-0.037,0.276-0.076,0.445c-0.038,0.161-0.08,0.299-0.124,0.408c-0.045,0.111-0.095,0.198-0.151,0.261
		c-0.058,0.062-0.118,0.104-0.184,0.12c-0.065,0.019-0.133,0.019-0.205,0.001l-5.805-1.355l-1.447,6.19l6.859,1.604
		c0.07,0.018,0.132,0.05,0.182,0.101c0.049,0.05,0.088,0.115,0.115,0.203c0.026,0.086,0.034,0.19,0.024,0.314
		C139.444,283.415,139.419,283.567,139.377,283.745z"/>
	<path d="M158.053,285.888c-0.017,0.184-0.062,0.335-0.135,0.455c-0.071,0.123-0.162,0.222-0.269,0.295
		c-0.106,0.071-0.224,0.121-0.349,0.146c-0.126,0.024-0.25,0.032-0.373,0.021l-0.777-0.069c-0.246-0.021-0.458-0.065-0.637-0.133
		c-0.181-0.066-0.347-0.174-0.499-0.319c-0.154-0.146-0.304-0.343-0.447-0.585c-0.145-0.242-0.293-0.551-0.446-0.924l-4.498-10.551
		c-0.233-0.545-0.472-1.115-0.707-1.711c-0.235-0.597-0.454-1.174-0.651-1.732l-0.027-0.004c-0.039,0.658-0.087,1.33-0.139,2.016
		c-0.054,0.686-0.108,1.364-0.169,2.039l-0.957,10.684c-0.007,0.062-0.031,0.124-0.074,0.181c-0.044,0.056-0.113,0.096-0.208,0.118
		c-0.094,0.022-0.217,0.04-0.369,0.051c-0.15,0.01-0.342,0.004-0.572-0.018s-0.419-0.051-0.566-0.086
		c-0.146-0.036-0.264-0.074-0.347-0.114c-0.083-0.039-0.144-0.09-0.176-0.151c-0.032-0.062-0.047-0.126-0.041-0.189l1.464-16.331
		c0.033-0.365,0.159-0.616,0.38-0.752c0.221-0.138,0.454-0.194,0.699-0.173l1.157,0.104c0.273,0.025,0.499,0.068,0.68,0.132
		c0.18,0.062,0.338,0.15,0.474,0.271c0.137,0.117,0.266,0.276,0.385,0.477c0.12,0.198,0.243,0.446,0.366,0.742l3.454,8.143
		c0.215,0.497,0.419,0.98,0.616,1.454c0.198,0.473,0.387,0.938,0.567,1.396s0.36,0.907,0.539,1.353
		c0.179,0.441,0.354,0.889,0.527,1.336l0.014,0.002c0.046-0.724,0.103-1.475,0.167-2.254c0.064-0.78,0.132-1.529,0.196-2.25
		l0.859-9.603c0.005-0.063,0.029-0.122,0.074-0.175c0.044-0.051,0.112-0.093,0.207-0.126c0.096-0.032,0.219-0.052,0.37-0.056
		c0.148-0.007,0.347,0.003,0.586,0.023c0.213,0.021,0.394,0.045,0.547,0.075c0.151,0.032,0.271,0.072,0.354,0.122
		c0.083,0.049,0.14,0.103,0.174,0.159c0.033,0.06,0.048,0.12,0.042,0.185L158.053,285.888z"/>
	<path d="M174.6,269.55c0.009,0.175,0.007,0.324-0.005,0.453c-0.013,0.13-0.037,0.232-0.074,0.312
		c-0.038,0.08-0.085,0.141-0.144,0.18c-0.059,0.04-0.123,0.062-0.195,0.064l-4.992,0.247l0.764,15.391
		c0.003,0.072-0.013,0.139-0.047,0.193c-0.031,0.058-0.095,0.104-0.185,0.141c-0.092,0.036-0.211,0.069-0.359,0.101
		c-0.149,0.03-0.339,0.052-0.567,0.062c-0.219,0.012-0.406,0.01-0.562-0.007c-0.156-0.016-0.28-0.036-0.374-0.062
		c-0.093-0.026-0.16-0.066-0.198-0.12c-0.04-0.054-0.062-0.116-0.063-0.188l-0.763-15.391l-4.994,0.247
		c-0.072,0.004-0.14-0.011-0.2-0.045c-0.062-0.034-0.113-0.088-0.153-0.164c-0.041-0.075-0.075-0.177-0.104-0.305
		c-0.027-0.126-0.047-0.276-0.056-0.45s-0.005-0.328,0.012-0.462c0.018-0.133,0.041-0.242,0.073-0.326
		c0.03-0.084,0.076-0.146,0.135-0.187c0.059-0.038,0.123-0.062,0.197-0.063l12.343-0.611c0.073-0.004,0.142,0.013,0.202,0.045
		c0.062,0.034,0.113,0.092,0.159,0.171c0.045,0.08,0.08,0.188,0.105,0.317C174.573,269.223,174.591,269.376,174.6,269.55z"/>
	<path d="M198.771,272.143c0.354,1.394,0.512,2.689,0.468,3.893c-0.043,1.201-0.288,2.277-0.74,3.229
		c-0.451,0.951-1.116,1.764-1.993,2.438c-0.878,0.673-1.972,1.177-3.283,1.512c-1.297,0.33-2.466,0.424-3.509,0.279
		c-1.044-0.146-1.967-0.509-2.771-1.086c-0.805-0.579-1.497-1.376-2.076-2.391c-0.58-1.016-1.054-2.23-1.413-3.649
		c-0.348-1.357-0.498-2.633-0.453-3.825c0.045-1.19,0.298-2.261,0.756-3.204c0.459-0.942,1.126-1.752,2.004-2.425
		c0.877-0.673,1.973-1.178,3.284-1.513c1.269-0.323,2.424-0.415,3.46-0.272c1.037,0.143,1.962,0.498,2.773,1.07
		c0.812,0.571,1.51,1.357,2.091,2.357C197.946,269.553,198.414,270.75,198.771,272.143z M196.39,272.92
		c-0.249-0.976-0.567-1.858-0.954-2.653c-0.388-0.794-0.859-1.448-1.421-1.961c-0.562-0.515-1.223-0.857-1.982-1.032
		c-0.762-0.174-1.64-0.135-2.632,0.119c-0.991,0.253-1.775,0.65-2.354,1.195c-0.579,0.544-0.999,1.182-1.261,1.909
		c-0.264,0.729-0.38,1.529-0.351,2.405c0.03,0.877,0.162,1.771,0.396,2.686c0.258,1.012,0.579,1.921,0.965,2.729
		c0.388,0.81,0.855,1.472,1.413,1.984c0.557,0.516,1.212,0.857,1.968,1.028c0.757,0.171,1.641,0.127,2.649-0.131
		c1.001-0.256,1.795-0.656,2.383-1.203c0.586-0.547,1.007-1.189,1.263-1.932c0.254-0.739,0.363-1.551,0.327-2.431
		C196.764,274.758,196.626,273.852,196.39,272.92z"/>
	<path d="M208.311,259.952c0.065,0.159,0.114,0.304,0.146,0.429c0.032,0.126,0.042,0.233,0.028,0.323
		c-0.014,0.089-0.04,0.162-0.082,0.218c-0.041,0.059-0.091,0.099-0.149,0.122l-6.02,2.479l2.3,5.587l5.689-2.341
		c0.059-0.023,0.121-0.033,0.188-0.025c0.066,0.008,0.136,0.035,0.206,0.087c0.068,0.05,0.137,0.128,0.2,0.235
		c0.063,0.105,0.134,0.249,0.204,0.428c0.066,0.16,0.115,0.303,0.146,0.424c0.031,0.121,0.039,0.228,0.025,0.314
		c-0.013,0.09-0.037,0.165-0.077,0.227c-0.039,0.062-0.091,0.104-0.148,0.127l-5.688,2.343l2.816,6.846
		c0.023,0.06,0.03,0.123,0.021,0.19c-0.013,0.069-0.055,0.138-0.126,0.2c-0.073,0.064-0.174,0.136-0.3,0.213
		c-0.127,0.077-0.301,0.16-0.521,0.251c-0.202,0.083-0.381,0.146-0.533,0.184c-0.151,0.038-0.276,0.061-0.374,0.063
		c-0.097,0.005-0.174-0.013-0.229-0.054s-0.098-0.092-0.12-0.15l-6.264-15.214c-0.135-0.33-0.145-0.597-0.022-0.799
		c0.119-0.203,0.276-0.345,0.473-0.426l7.392-3.041c0.06-0.023,0.123-0.03,0.191-0.021c0.067,0.013,0.142,0.046,0.214,0.104
		c0.074,0.061,0.146,0.146,0.212,0.264C208.178,259.655,208.245,259.791,208.311,259.952z"/>
	<path d="M232.482,264.162c0.097,0.154,0.169,0.291,0.22,0.404c0.05,0.114,0.08,0.221,0.092,0.314
		c0.012,0.096,0.001,0.178-0.026,0.243c-0.028,0.065-0.079,0.121-0.147,0.164l-6.673,4.146c-0.179,0.11-0.385,0.155-0.619,0.136
		c-0.232-0.021-0.444-0.186-0.635-0.487l-8.687-13.973c-0.037-0.062-0.059-0.126-0.055-0.191c0.001-0.065,0.032-0.137,0.094-0.213
		c0.062-0.075,0.151-0.163,0.271-0.267c0.119-0.103,0.272-0.21,0.459-0.325c0.195-0.12,0.363-0.212,0.503-0.271
		c0.142-0.061,0.26-0.102,0.354-0.123c0.095-0.02,0.173-0.018,0.231,0.011c0.061,0.026,0.109,0.071,0.147,0.136l8.113,13.051
		l5.41-3.364c0.07-0.044,0.144-0.062,0.215-0.06c0.07,0.004,0.146,0.026,0.223,0.07c0.075,0.044,0.155,0.115,0.238,0.215
		C232.295,263.879,232.385,264.006,232.482,264.162z"/>
	<path d="M243.354,255.832c0.104,0.129,0.187,0.248,0.247,0.355c0.062,0.107,0.103,0.209,0.115,0.303
		c0.017,0.093,0.012,0.173-0.014,0.237c-0.024,0.064-0.063,0.121-0.122,0.167l-6.69,5.286c-0.165,0.131-0.365,0.197-0.603,0.202
		c-0.233,0.006-0.463-0.133-0.686-0.411l-9.823-12.437c-0.223-0.281-0.302-0.534-0.242-0.764c0.06-0.228,0.171-0.405,0.336-0.537
		l6.617-5.228c0.057-0.046,0.12-0.071,0.189-0.081c0.068-0.008,0.145,0.01,0.224,0.052s0.167,0.104,0.263,0.188
		s0.197,0.194,0.312,0.34c0.104,0.129,0.184,0.25,0.242,0.36c0.058,0.11,0.097,0.209,0.116,0.293
		c0.021,0.083,0.018,0.157-0.007,0.224c-0.023,0.065-0.063,0.121-0.123,0.167l-5.452,4.309l3.455,4.375l4.679-3.693
		c0.058-0.046,0.123-0.071,0.193-0.076c0.072-0.004,0.146,0.011,0.227,0.042c0.08,0.032,0.163,0.094,0.258,0.182
		c0.094,0.09,0.192,0.202,0.303,0.34c0.104,0.13,0.183,0.246,0.242,0.352c0.06,0.104,0.097,0.198,0.107,0.281
		c0.012,0.083,0.007,0.155-0.021,0.218c-0.025,0.062-0.067,0.116-0.126,0.161l-4.677,3.693l3.941,4.989l5.526-4.367
		c0.058-0.045,0.12-0.07,0.188-0.08c0.07-0.008,0.147,0.004,0.231,0.037c0.084,0.031,0.171,0.092,0.262,0.178
		C243.139,255.573,243.24,255.688,243.354,255.832z"/>
	<path d="M256.44,243.105c0.193,0.088,0.339,0.173,0.432,0.257c0.091,0.082,0.135,0.174,0.129,0.271
		c-0.005,0.099-0.062,0.214-0.165,0.349c-0.104,0.135-0.258,0.304-0.455,0.505c-0.197,0.204-0.361,0.361-0.488,0.474
		c-0.129,0.111-0.233,0.188-0.317,0.229c-0.083,0.04-0.159,0.057-0.229,0.046c-0.067-0.009-0.146-0.027-0.229-0.061l-4.163-1.929
		l-5.157,5.289l2.04,4.022c0.04,0.076,0.065,0.152,0.076,0.229c0.011,0.074,0,0.156-0.03,0.248s-0.097,0.199-0.194,0.327
		c-0.1,0.127-0.236,0.283-0.416,0.467c-0.188,0.189-0.348,0.338-0.479,0.442c-0.135,0.104-0.249,0.161-0.343,0.165
		c-0.094,0.005-0.185-0.039-0.271-0.129c-0.085-0.089-0.174-0.229-0.268-0.424l-7.656-15.792c-0.047-0.097-0.071-0.188-0.075-0.274
		c-0.004-0.088,0.021-0.186,0.073-0.293c0.055-0.106,0.139-0.229,0.252-0.366c0.115-0.139,0.27-0.306,0.46-0.502
		c0.205-0.209,0.38-0.378,0.522-0.507c0.146-0.128,0.271-0.222,0.381-0.28c0.108-0.061,0.211-0.089,0.304-0.087
		c0.096,0.003,0.19,0.024,0.289,0.068L256.44,243.105z M240.669,238.408l-0.01,0.01l4.202,8.377l4.313-4.424L240.669,238.408z"/>
	<path d="M266.637,230.305c0.06,0.044,0.103,0.093,0.131,0.146c0.027,0.055,0.028,0.131,0.005,0.226
		c-0.023,0.097-0.079,0.216-0.162,0.358c-0.082,0.146-0.204,0.325-0.367,0.548c-0.141,0.191-0.264,0.343-0.367,0.454
		c-0.104,0.11-0.199,0.19-0.287,0.239c-0.087,0.051-0.177,0.073-0.266,0.068c-0.089-0.002-0.188-0.021-0.299-0.057l-4.343-1.164
		c-0.497-0.127-0.969-0.226-1.41-0.295c-0.442-0.07-0.864-0.075-1.267-0.019c-0.4,0.058-0.778,0.193-1.136,0.408
		c-0.356,0.216-0.694,0.54-1.016,0.977l-0.937,1.271l6.1,4.48c0.06,0.044,0.099,0.099,0.117,0.163
		c0.021,0.064,0.018,0.145-0.009,0.231c-0.025,0.09-0.073,0.201-0.146,0.336c-0.07,0.137-0.174,0.297-0.312,0.479
		c-0.135,0.186-0.257,0.331-0.363,0.438c-0.107,0.108-0.202,0.189-0.283,0.244c-0.079,0.057-0.15,0.081-0.218,0.078
		c-0.064-0.003-0.129-0.025-0.188-0.068l-13.259-9.742c-0.286-0.212-0.433-0.436-0.437-0.671c-0.005-0.233,0.058-0.438,0.183-0.606
		l2.235-3.043c0.267-0.361,0.496-0.654,0.689-0.881c0.194-0.229,0.373-0.429,0.537-0.604c0.503-0.482,1.014-0.859,1.53-1.134
		c0.52-0.271,1.042-0.437,1.57-0.49c0.527-0.055,1.051-0.004,1.564,0.153c0.516,0.157,1.021,0.418,1.516,0.781
		c0.479,0.352,0.86,0.73,1.146,1.141c0.284,0.408,0.481,0.841,0.597,1.299c0.112,0.457,0.15,0.937,0.114,1.432
		c-0.034,0.497-0.133,1.011-0.294,1.539c0.275-0.159,0.564-0.277,0.862-0.354c0.301-0.075,0.622-0.114,0.966-0.118
		s0.713,0.027,1.109,0.092c0.396,0.063,0.829,0.154,1.298,0.271l4.098,1.034c0.344,0.092,0.578,0.162,0.706,0.212
		C266.484,230.215,266.578,230.26,266.637,230.305z M254.472,225.779c-0.562-0.411-1.128-0.635-1.699-0.669
		c-0.57-0.033-1.158,0.184-1.762,0.646c-0.188,0.146-0.379,0.328-0.57,0.544c-0.191,0.217-0.429,0.514-0.704,0.89l-1.179,1.604
		l4.823,3.546l1.366-1.858c0.368-0.501,0.626-0.979,0.771-1.436c0.146-0.454,0.201-0.884,0.162-1.287
		c-0.038-0.402-0.163-0.771-0.375-1.102C255.097,226.327,254.818,226.034,254.472,225.779z"/>
	<path d="M275.08,213.812c0.162,0.086,0.286,0.187,0.37,0.3c0.084,0.114,0.141,0.234,0.167,0.36
		c0.025,0.127,0.026,0.253,0.002,0.379c-0.024,0.125-0.064,0.242-0.123,0.354l-0.364,0.689c-0.114,0.219-0.238,0.396-0.368,0.537
		c-0.132,0.139-0.294,0.252-0.488,0.336c-0.193,0.085-0.433,0.146-0.711,0.188c-0.279,0.04-0.622,0.06-1.023,0.058l-11.47,0.077
		c-0.594,0.009-1.211,0.006-1.852-0.008c-0.642-0.014-1.259-0.035-1.852-0.066l-0.015,0.023c0.592,0.292,1.192,0.593,1.807,0.904
		c0.612,0.312,1.217,0.627,1.815,0.941l9.484,5.006c0.059,0.029,0.104,0.075,0.139,0.138c0.033,0.062,0.045,0.143,0.029,0.237
		s-0.047,0.216-0.096,0.358c-0.052,0.144-0.131,0.315-0.238,0.521c-0.106,0.206-0.206,0.369-0.297,0.489
		c-0.09,0.122-0.17,0.215-0.238,0.275c-0.068,0.062-0.139,0.097-0.209,0.104s-0.136-0.006-0.191-0.035l-14.502-7.649
		c-0.322-0.171-0.506-0.386-0.547-0.643c-0.04-0.256-0.004-0.493,0.109-0.711l0.543-1.027c0.128-0.241,0.255-0.435,0.381-0.575
		c0.129-0.143,0.271-0.252,0.434-0.333c0.162-0.08,0.356-0.139,0.587-0.171c0.229-0.033,0.507-0.052,0.827-0.053l8.845-0.046
		c0.54-0.005,1.066-0.007,1.579-0.007s1.015,0.005,1.507,0.014c0.491,0.011,0.979,0.019,1.454,0.023
		c0.479,0.009,0.955,0.019,1.438,0.03l0.007-0.014c-0.648-0.319-1.32-0.661-2.017-1.022c-0.692-0.36-1.359-0.711-2.001-1.048
		l-8.525-4.499c-0.058-0.029-0.102-0.074-0.13-0.134c-0.031-0.062-0.044-0.141-0.037-0.24c0.007-0.102,0.037-0.223,0.09-0.361
		c0.055-0.142,0.139-0.318,0.25-0.532c0.1-0.188,0.192-0.347,0.281-0.475c0.088-0.128,0.171-0.222,0.247-0.278
		c0.077-0.058,0.148-0.092,0.216-0.101c0.066-0.008,0.13,0.002,0.187,0.032L275.08,213.812z"/>
	<path d="M278.704,206.312c0.067,0.025,0.12,0.065,0.157,0.121c0.038,0.054,0.056,0.129,0.053,0.228
		c-0.004,0.097-0.021,0.22-0.057,0.367c-0.033,0.148-0.093,0.331-0.176,0.545c-0.08,0.203-0.158,0.375-0.236,0.512
		c-0.078,0.138-0.148,0.241-0.213,0.314c-0.062,0.073-0.127,0.117-0.189,0.132c-0.064,0.015-0.132,0.009-0.199-0.021l-15.885-6.214
		c-0.067-0.025-0.121-0.068-0.156-0.128c-0.035-0.059-0.051-0.138-0.046-0.238c0.006-0.102,0.023-0.227,0.06-0.375
		c0.033-0.148,0.087-0.321,0.165-0.519c0.083-0.213,0.163-0.387,0.24-0.519c0.075-0.134,0.145-0.235,0.208-0.311
		c0.062-0.075,0.128-0.117,0.191-0.132c0.062-0.015,0.13-0.009,0.197,0.02L278.704,206.312z"/>
	<path d="M283.73,187.557c0.179,0.048,0.319,0.116,0.429,0.21c0.107,0.092,0.188,0.196,0.243,0.313s0.082,0.238,0.086,0.368
		c0.004,0.128-0.011,0.252-0.043,0.37l-0.199,0.756c-0.062,0.237-0.145,0.438-0.24,0.604c-0.096,0.165-0.229,0.312-0.399,0.438
		c-0.17,0.126-0.388,0.238-0.65,0.341c-0.265,0.102-0.594,0.194-0.984,0.283l-11.162,2.638c-0.577,0.141-1.181,0.273-1.807,0.405
		c-0.628,0.131-1.233,0.247-1.819,0.348l-0.007,0.026c0.642,0.151,1.295,0.312,1.962,0.479c0.666,0.168,1.325,0.34,1.979,0.514
		l10.363,2.762c0.062,0.017,0.117,0.051,0.164,0.104c0.049,0.053,0.075,0.128,0.082,0.225c0.008,0.098,0.003,0.221-0.015,0.372
		c-0.018,0.149-0.054,0.338-0.112,0.562c-0.062,0.225-0.12,0.405-0.182,0.545c-0.062,0.139-0.117,0.245-0.172,0.32
		c-0.055,0.076-0.111,0.125-0.181,0.146c-0.067,0.021-0.134,0.023-0.194,0.009l-15.846-4.22c-0.354-0.096-0.577-0.263-0.677-0.503
		c-0.098-0.241-0.112-0.479-0.05-0.719l0.3-1.123c0.069-0.265,0.15-0.479,0.242-0.646c0.092-0.167,0.208-0.307,0.348-0.421
		s0.316-0.214,0.533-0.298c0.218-0.085,0.481-0.163,0.794-0.234l8.609-2.021c0.526-0.125,1.04-0.245,1.54-0.359
		c0.498-0.113,0.987-0.222,1.472-0.321c0.48-0.102,0.956-0.201,1.422-0.302c0.468-0.1,0.938-0.196,1.407-0.292l0.004-0.014
		c-0.703-0.168-1.435-0.352-2.191-0.549c-0.759-0.196-1.485-0.388-2.186-0.573l-9.315-2.48c-0.062-0.017-0.113-0.051-0.157-0.103
		c-0.043-0.053-0.072-0.127-0.089-0.228c-0.018-0.1-0.015-0.225,0.007-0.373s0.062-0.341,0.125-0.574
		c0.056-0.204,0.11-0.38,0.168-0.523c0.06-0.146,0.118-0.254,0.18-0.326c0.062-0.073,0.126-0.122,0.188-0.146
		c0.062-0.022,0.125-0.026,0.188-0.011L283.73,187.557z"/>
	<path d="M271.926,166.477c0.175,0.018,0.325,0.042,0.455,0.072c0.131,0.032,0.237,0.07,0.32,0.116
		c0.082,0.046,0.139,0.098,0.17,0.154c0.03,0.059,0.043,0.12,0.036,0.185c-0.012,0.109-0.116,0.282-0.313,0.521
		c-0.199,0.237-0.426,0.561-0.681,0.967c-0.253,0.406-0.497,0.898-0.73,1.479c-0.232,0.578-0.395,1.276-0.477,2.098
		c-0.102,0.975-0.015,1.867,0.264,2.678c0.276,0.812,0.699,1.519,1.273,2.119c0.571,0.602,1.276,1.09,2.112,1.466
		s1.761,0.615,2.771,0.719c1.13,0.115,2.146,0.062,3.055-0.163c0.907-0.226,1.688-0.585,2.348-1.078
		c0.658-0.493,1.181-1.108,1.569-1.848c0.388-0.737,0.63-1.566,0.724-2.486c0.057-0.548,0.048-1.105-0.027-1.681
		c-0.073-0.573-0.219-1.114-0.435-1.626l-5.149-0.526l-0.42,4.1c-0.017,0.154-0.104,0.264-0.269,0.323
		c-0.163,0.062-0.408,0.076-0.734,0.042c-0.175-0.018-0.321-0.042-0.44-0.071c-0.122-0.031-0.22-0.071-0.292-0.12
		s-0.125-0.104-0.156-0.161c-0.03-0.059-0.042-0.128-0.034-0.21l0.575-5.614c0.011-0.101,0.039-0.198,0.086-0.295
		c0.047-0.098,0.109-0.183,0.191-0.258c0.082-0.073,0.188-0.127,0.319-0.16c0.133-0.031,0.279-0.039,0.443-0.022l6.733,0.689
		c0.238,0.023,0.438,0.087,0.604,0.187c0.164,0.101,0.301,0.288,0.405,0.566c0.104,0.276,0.212,0.634,0.323,1.067
		c0.112,0.435,0.199,0.881,0.265,1.339c0.062,0.457,0.1,0.916,0.105,1.377c0.009,0.462-0.012,0.915-0.058,1.361
		c-0.141,1.365-0.477,2.563-1.01,3.596s-1.229,1.878-2.091,2.54c-0.857,0.662-1.854,1.133-2.986,1.413
		c-1.135,0.278-2.374,0.351-3.724,0.212c-1.4-0.144-2.649-0.484-3.745-1.024s-2.004-1.234-2.727-2.087
		c-0.724-0.854-1.25-1.842-1.582-2.966c-0.33-1.125-0.43-2.343-0.295-3.653c0.068-0.674,0.192-1.302,0.371-1.881
		c0.181-0.58,0.372-1.093,0.578-1.535c0.207-0.442,0.42-0.812,0.639-1.107c0.221-0.295,0.396-0.495,0.523-0.603
		c0.131-0.104,0.275-0.174,0.437-0.204C271.409,166.446,271.635,166.446,271.926,166.477z"/>
</g>
<g>
	<path id="Innerer_Ring_3_" fill="none" d="M269.632,169.56c-4.14,59.189-55.476,103.815-114.667,99.679
		c-59.193-4.142-103.818-55.479-99.68-114.666c4.138-59.19,55.474-103.816,114.667-99.678
		C229.142,59.035,273.769,110.372,269.632,169.56z"/>
	<path d="M55.496,121.981c1.031,0.316,1.906,0.753,2.623,1.305c0.716,0.552,1.269,1.193,1.654,1.926
		c0.388,0.732,0.603,1.546,0.643,2.438c0.04,0.896-0.099,1.854-0.413,2.877c-0.288,0.937-0.688,1.747-1.194,2.435
		c-0.51,0.688-1.113,1.225-1.812,1.611c-0.7,0.388-1.493,0.607-2.38,0.659c-0.89,0.054-1.854-0.082-2.895-0.402l-10.539-3.248
		c-0.07-0.021-0.126-0.06-0.168-0.108c-0.042-0.05-0.063-0.125-0.068-0.224c-0.004-0.098,0.007-0.218,0.027-0.365
		c0.021-0.146,0.065-0.333,0.137-0.561c0.064-0.212,0.132-0.388,0.199-0.528c0.067-0.142,0.129-0.25,0.187-0.323
		c0.057-0.073,0.115-0.119,0.18-0.14c0.062-0.02,0.131-0.018,0.199,0.005l10.265,3.163c0.786,0.242,1.504,0.357,2.148,0.348
		c0.646-0.014,1.219-0.141,1.72-0.383s0.93-0.591,1.284-1.042c0.354-0.45,0.63-0.996,0.827-1.635
		c0.201-0.656,0.285-1.271,0.252-1.842c-0.035-0.57-0.189-1.094-0.467-1.565c-0.274-0.473-0.669-0.891-1.18-1.255
		c-0.511-0.361-1.146-0.662-1.908-0.896l-10.38-3.2c-0.068-0.021-0.126-0.058-0.167-0.108c-0.042-0.051-0.064-0.125-0.067-0.222
		c-0.005-0.098,0.006-0.222,0.027-0.372c0.021-0.151,0.066-0.336,0.136-0.556c0.064-0.21,0.131-0.384,0.195-0.521
		c0.066-0.139,0.128-0.243,0.185-0.316c0.058-0.073,0.117-0.122,0.183-0.146c0.062-0.022,0.131-0.023,0.2-0.003L55.496,121.981z"/>
	<path d="M68.357,107.764c0.165,0.08,0.289,0.178,0.376,0.29c0.088,0.111,0.146,0.229,0.177,0.356
		c0.028,0.125,0.032,0.252,0.011,0.378c-0.021,0.126-0.062,0.245-0.114,0.354l-0.349,0.699c-0.109,0.221-0.229,0.401-0.355,0.544
		c-0.127,0.146-0.287,0.26-0.479,0.35s-0.429,0.157-0.708,0.204c-0.277,0.045-0.619,0.071-1.021,0.08l-11.464,0.35
		c-0.594,0.021-1.211,0.031-1.853,0.034c-0.642,0.004-1.259-0.005-1.853-0.022l-0.013,0.024c0.6,0.276,1.207,0.562,1.826,0.861
		s1.231,0.599,1.838,0.898l9.603,4.779c0.058,0.028,0.104,0.073,0.141,0.135c0.037,0.062,0.048,0.142,0.035,0.236
		c-0.012,0.097-0.042,0.218-0.088,0.359c-0.046,0.146-0.122,0.32-0.226,0.528c-0.102,0.208-0.197,0.373-0.284,0.497
		s-0.165,0.218-0.23,0.28c-0.066,0.062-0.138,0.101-0.208,0.106c-0.07,0.009-0.135-0.002-0.19-0.03l-14.68-7.309
		c-0.328-0.162-0.516-0.372-0.562-0.627c-0.047-0.256-0.017-0.494,0.094-0.714l0.52-1.04c0.121-0.245,0.245-0.44,0.368-0.585
		c0.124-0.145,0.265-0.26,0.424-0.344c0.159-0.085,0.354-0.146,0.582-0.186c0.229-0.039,0.506-0.062,0.825-0.07l8.84-0.256
		c0.541-0.018,1.066-0.031,1.58-0.044c0.512-0.012,1.014-0.02,1.506-0.021c0.492-0.002,0.977-0.006,1.454-0.011
		c0.479-0.004,0.957-0.006,1.438-0.004l0.005-0.014c-0.655-0.306-1.334-0.631-2.037-0.976c-0.702-0.346-1.379-0.68-2.025-1
		l-8.631-4.298c-0.059-0.028-0.102-0.071-0.133-0.131c-0.032-0.061-0.047-0.14-0.042-0.24c0.004-0.101,0.03-0.223,0.082-0.363
		c0.05-0.143,0.128-0.321,0.236-0.537c0.096-0.189,0.185-0.352,0.271-0.479c0.084-0.13,0.165-0.227,0.24-0.283
		c0.076-0.062,0.148-0.096,0.214-0.105c0.066-0.009,0.128,0,0.187,0.028L68.357,107.764z"/>
	<path d="M72.574,102.521c0.061,0.04,0.104,0.091,0.131,0.15c0.025,0.062,0.027,0.139,0.005,0.231
		c-0.022,0.095-0.064,0.211-0.129,0.351c-0.062,0.141-0.156,0.306-0.28,0.497c-0.119,0.186-0.23,0.336-0.335,0.454
		c-0.104,0.118-0.193,0.207-0.271,0.267c-0.075,0.061-0.146,0.09-0.213,0.091c-0.065,0.001-0.13-0.02-0.19-0.06l-14.312-9.274
		c-0.062-0.04-0.104-0.093-0.128-0.155c-0.023-0.065-0.021-0.146,0.002-0.244c0.024-0.099,0.069-0.218,0.133-0.355
		c0.062-0.14,0.152-0.298,0.267-0.475c0.125-0.19,0.237-0.346,0.339-0.46c0.102-0.113,0.189-0.201,0.268-0.261
		c0.078-0.061,0.148-0.09,0.213-0.091c0.066,0,0.131,0.02,0.191,0.06L72.574,102.521z"/>
	<path d="M79.368,93.281c0.056,0.091,0.088,0.183,0.098,0.271c0.011,0.092-0.006,0.191-0.05,0.305
		c-0.043,0.111-0.115,0.242-0.216,0.391c-0.103,0.146-0.236,0.324-0.401,0.531c-0.126,0.157-0.238,0.293-0.338,0.407
		c-0.1,0.113-0.188,0.209-0.271,0.282c-0.084,0.074-0.159,0.136-0.227,0.182c-0.065,0.047-0.13,0.079-0.192,0.101
		c-0.062,0.021-0.125,0.025-0.185,0.021c-0.061-0.006-0.126-0.021-0.199-0.047l-16.501-5.826c-0.204-0.068-0.354-0.142-0.453-0.215
		c-0.1-0.074-0.148-0.163-0.146-0.27c0.002-0.104,0.053-0.231,0.152-0.389c0.102-0.152,0.25-0.353,0.443-0.594
		c0.161-0.199,0.296-0.354,0.399-0.465c0.105-0.107,0.198-0.184,0.278-0.226c0.08-0.041,0.155-0.06,0.229-0.055
		c0.071,0.006,0.155,0.021,0.25,0.052l14.844,5.409l0.01-0.012l-8.52-13.223c-0.062-0.084-0.104-0.161-0.133-0.229
		c-0.027-0.067-0.026-0.149,0.003-0.245c0.028-0.095,0.089-0.209,0.182-0.347c0.094-0.138,0.227-0.312,0.398-0.526
		c0.178-0.222,0.327-0.39,0.447-0.502c0.122-0.113,0.227-0.175,0.312-0.182c0.086-0.006,0.174,0.035,0.263,0.123
		c0.087,0.088,0.188,0.225,0.298,0.407L79.368,93.281z"/>
	<path d="M91.564,79.871c0.114,0.119,0.207,0.229,0.278,0.332c0.071,0.104,0.12,0.197,0.145,0.29
		c0.022,0.091,0.026,0.171,0.01,0.237c-0.019,0.066-0.055,0.127-0.105,0.179l-6.176,5.881c-0.152,0.146-0.346,0.23-0.579,0.258
		s-0.475-0.089-0.721-0.348L73.485,75.224c-0.246-0.26-0.352-0.505-0.312-0.735c0.038-0.232,0.134-0.422,0.285-0.566l6.105-5.813
		c0.054-0.052,0.114-0.083,0.184-0.1c0.067-0.014,0.145-0.004,0.228,0.03c0.084,0.034,0.176,0.089,0.278,0.162
		c0.102,0.073,0.215,0.177,0.342,0.31c0.113,0.119,0.204,0.231,0.273,0.338c0.067,0.104,0.116,0.198,0.145,0.279
		c0.025,0.081,0.03,0.156,0.014,0.225c-0.02,0.066-0.054,0.127-0.104,0.179l-5.032,4.792l3.846,4.036l4.315-4.109
		c0.054-0.051,0.115-0.081,0.188-0.093s0.146-0.005,0.229,0.021c0.081,0.024,0.172,0.076,0.271,0.156
		c0.104,0.08,0.214,0.185,0.333,0.311c0.113,0.119,0.205,0.229,0.274,0.327c0.067,0.099,0.112,0.188,0.133,0.271
		c0.021,0.081,0.021,0.152,0,0.218c-0.021,0.064-0.059,0.122-0.11,0.173l-4.313,4.11l4.385,4.604l5.102-4.857
		c0.054-0.052,0.113-0.083,0.184-0.099c0.066-0.016,0.146-0.01,0.23,0.017c0.087,0.023,0.179,0.075,0.277,0.151
		C91.325,79.634,91.438,79.738,91.564,79.871z"/>
	<path d="M104.084,71.2c0.044,0.06,0.069,0.118,0.08,0.18s-0.011,0.134-0.062,0.217c-0.054,0.084-0.141,0.182-0.263,0.295
		c-0.123,0.11-0.294,0.249-0.515,0.411c-0.192,0.142-0.354,0.248-0.487,0.322s-0.249,0.122-0.347,0.145
		c-0.099,0.021-0.188,0.018-0.273-0.014c-0.084-0.03-0.174-0.078-0.268-0.146l-3.794-2.411c-0.438-0.271-0.856-0.506-1.258-0.704
		c-0.401-0.199-0.803-0.332-1.201-0.396c-0.399-0.064-0.802-0.049-1.207,0.05c-0.404,0.1-0.825,0.308-1.262,0.626l-1.273,0.935
		l4.475,6.104c0.043,0.06,0.063,0.122,0.062,0.19c0,0.067-0.027,0.143-0.077,0.22c-0.053,0.076-0.132,0.17-0.24,0.276
		c-0.107,0.106-0.254,0.229-0.438,0.365c-0.184,0.135-0.345,0.237-0.479,0.309c-0.134,0.072-0.249,0.121-0.342,0.147
		c-0.094,0.028-0.17,0.031-0.231,0.01c-0.062-0.021-0.114-0.062-0.158-0.123L84.8,64.937c-0.211-0.288-0.282-0.545-0.216-0.771
		c0.067-0.227,0.187-0.399,0.356-0.524l3.045-2.231c0.363-0.266,0.67-0.477,0.925-0.635c0.253-0.156,0.483-0.296,0.692-0.414
		c0.623-0.311,1.225-0.518,1.799-0.62c0.578-0.104,1.125-0.104,1.646,0.003c0.521,0.105,1.004,0.312,1.448,0.615
		c0.444,0.306,0.85,0.704,1.21,1.198c0.353,0.479,0.604,0.958,0.752,1.434c0.148,0.475,0.208,0.946,0.18,1.418
		c-0.03,0.47-0.136,0.938-0.319,1.398c-0.184,0.464-0.43,0.924-0.741,1.379c0.312-0.068,0.62-0.096,0.93-0.077
		c0.309,0.02,0.627,0.077,0.955,0.178c0.329,0.101,0.672,0.238,1.031,0.42c0.358,0.181,0.743,0.396,1.156,0.648l3.6,2.215
		c0.298,0.189,0.502,0.328,0.608,0.413C103.965,71.069,104.042,71.142,104.084,71.2z M93.837,63.234
		c-0.411-0.562-0.885-0.942-1.42-1.146c-0.536-0.203-1.161-0.174-1.876,0.09c-0.224,0.085-0.458,0.199-0.706,0.349
		c-0.25,0.147-0.562,0.359-0.938,0.638l-1.605,1.177l3.54,4.83l1.86-1.363c0.501-0.368,0.892-0.747,1.167-1.138
		s0.457-0.782,0.541-1.18c0.083-0.396,0.074-0.784-0.027-1.163C94.27,63.945,94.091,63.582,93.837,63.234z"/>
	<path d="M112.384,61.246c0.408,0.729,0.637,1.449,0.687,2.166c0.05,0.718-0.052,1.405-0.307,2.067
		c-0.255,0.661-0.646,1.271-1.179,1.831c-0.531,0.561-1.169,1.048-1.912,1.464c-0.521,0.291-1.024,0.517-1.519,0.678
		c-0.492,0.158-0.948,0.272-1.367,0.34c-0.419,0.066-0.784,0.099-1.097,0.094c-0.312-0.004-0.541-0.026-0.687-0.071
		c-0.146-0.044-0.28-0.128-0.407-0.251c-0.127-0.124-0.26-0.31-0.397-0.558c-0.1-0.176-0.173-0.324-0.223-0.45
		c-0.047-0.124-0.076-0.23-0.084-0.321c-0.009-0.09,0.003-0.161,0.036-0.217c0.031-0.056,0.078-0.102,0.145-0.137
		c0.111-0.062,0.308-0.083,0.588-0.062c0.278,0.021,0.624,0.022,1.031,0.006c0.409-0.021,0.878-0.087,1.409-0.199
		c0.528-0.11,1.09-0.334,1.682-0.665c0.446-0.251,0.823-0.539,1.127-0.867c0.305-0.327,0.528-0.676,0.674-1.046
		c0.146-0.368,0.199-0.754,0.164-1.153c-0.034-0.398-0.167-0.805-0.395-1.211c-0.246-0.438-0.558-0.76-0.931-0.959
		c-0.375-0.2-0.791-0.325-1.25-0.378c-0.46-0.054-0.953-0.06-1.481-0.021c-0.529,0.039-1.069,0.079-1.624,0.121
		c-0.554,0.043-1.106,0.057-1.66,0.04c-0.555-0.015-1.09-0.099-1.604-0.251c-0.517-0.15-1.001-0.396-1.457-0.733
		c-0.457-0.337-0.861-0.82-1.215-1.452c-0.362-0.646-0.566-1.29-0.615-1.93s0.042-1.248,0.27-1.826s0.58-1.12,1.059-1.623
		c0.479-0.504,1.054-0.943,1.724-1.318c0.344-0.191,0.707-0.355,1.088-0.49s0.754-0.237,1.116-0.312
		c0.362-0.071,0.7-0.112,1.008-0.124c0.311-0.01,0.523,0.001,0.643,0.034c0.117,0.034,0.201,0.065,0.25,0.098
		c0.049,0.029,0.101,0.074,0.153,0.134c0.055,0.061,0.11,0.136,0.174,0.227c0.062,0.092,0.135,0.214,0.221,0.364
		c0.079,0.145,0.146,0.275,0.195,0.394c0.051,0.12,0.085,0.225,0.104,0.312c0.02,0.091,0.016,0.164-0.009,0.226
		s-0.063,0.105-0.12,0.14c-0.088,0.049-0.257,0.068-0.509,0.062c-0.25-0.007-0.549-0.004-0.898,0.009
		c-0.351,0.014-0.743,0.062-1.18,0.156c-0.437,0.092-0.886,0.269-1.35,0.526c-0.433,0.241-0.774,0.511-1.03,0.805
		c-0.254,0.295-0.434,0.597-0.533,0.903c-0.1,0.309-0.128,0.623-0.084,0.943c0.044,0.322,0.148,0.632,0.313,0.927
		c0.241,0.433,0.549,0.747,0.923,0.946c0.375,0.2,0.795,0.327,1.261,0.382s0.966,0.062,1.501,0.024
		c0.534-0.037,1.078-0.077,1.632-0.119c0.556-0.042,1.109-0.061,1.67-0.055c0.561,0.008,1.099,0.085,1.616,0.229
		c0.516,0.146,1.003,0.389,1.459,0.726C111.64,60.156,112.041,60.632,112.384,61.246z"/>
	<path d="M119.559,63.146c0.029,0.066,0.039,0.133,0.027,0.197c-0.011,0.064-0.051,0.132-0.121,0.197s-0.171,0.143-0.299,0.226
		c-0.128,0.082-0.297,0.171-0.505,0.265c-0.201,0.09-0.377,0.155-0.528,0.198c-0.151,0.042-0.275,0.066-0.372,0.075
		c-0.098,0.009-0.174-0.006-0.229-0.04c-0.056-0.035-0.099-0.087-0.129-0.153l-6.97-15.565c-0.029-0.065-0.038-0.134-0.021-0.201
		c0.017-0.065,0.062-0.134,0.135-0.202c0.074-0.067,0.177-0.145,0.306-0.228c0.129-0.082,0.288-0.167,0.479-0.253
		c0.209-0.095,0.388-0.16,0.534-0.202c0.146-0.04,0.271-0.063,0.365-0.071c0.097-0.01,0.172,0.005,0.229,0.039
		c0.056,0.035,0.1,0.087,0.128,0.152L119.559,63.146z"/>
	<path d="M128.817,42.304c0.057,0.163,0.097,0.311,0.121,0.438c0.022,0.127,0.028,0.233,0.016,0.32
		c-0.015,0.087-0.043,0.156-0.087,0.211c-0.046,0.055-0.104,0.093-0.173,0.116l-4.73,1.607l4.958,14.589
		c0.022,0.069,0.026,0.137,0.011,0.2c-0.019,0.062-0.063,0.125-0.142,0.187c-0.076,0.061-0.183,0.124-0.317,0.193
		c-0.137,0.069-0.312,0.144-0.528,0.216c-0.208,0.071-0.389,0.12-0.543,0.148c-0.155,0.027-0.281,0.043-0.379,0.042
		c-0.097-0.001-0.171-0.021-0.224-0.062c-0.053-0.038-0.09-0.095-0.113-0.163l-4.959-14.59l-4.731,1.609
		c-0.07,0.022-0.14,0.026-0.207,0.012c-0.068-0.017-0.133-0.055-0.19-0.115c-0.061-0.062-0.122-0.148-0.186-0.265
		c-0.062-0.113-0.122-0.254-0.179-0.418c-0.056-0.164-0.095-0.312-0.115-0.446s-0.028-0.244-0.021-0.334
		c0.008-0.091,0.034-0.161,0.08-0.216c0.044-0.054,0.102-0.093,0.171-0.116l11.701-3.978c0.069-0.023,0.139-0.027,0.206-0.013
		c0.067,0.017,0.135,0.056,0.201,0.12c0.064,0.063,0.128,0.156,0.188,0.276C128.705,41.996,128.761,42.139,128.817,42.304z"/>
	<path d="M140.311,49.854l1.331,6.414c0.016,0.071,0.01,0.14-0.015,0.198c-0.024,0.062-0.079,0.117-0.162,0.167
		c-0.082,0.051-0.196,0.103-0.344,0.156c-0.146,0.053-0.327,0.104-0.541,0.146c-0.224,0.047-0.411,0.072-0.562,0.082
		c-0.151,0.008-0.277,0.006-0.378-0.006c-0.102-0.014-0.175-0.043-0.222-0.089c-0.047-0.047-0.078-0.104-0.093-0.177l-1.33-6.414
		l-6.958-8.796c-0.143-0.187-0.236-0.334-0.282-0.446c-0.047-0.11-0.043-0.206,0.012-0.281c0.054-0.077,0.167-0.144,0.339-0.196
		c0.169-0.055,0.404-0.111,0.7-0.174c0.269-0.057,0.487-0.092,0.656-0.107c0.17-0.017,0.309-0.02,0.412-0.008
		c0.104,0.011,0.188,0.039,0.25,0.088c0.062,0.048,0.124,0.111,0.188,0.192l3.445,4.502c0.321,0.43,0.646,0.881,0.979,1.354
		c0.331,0.476,0.667,0.952,1.01,1.433l0.026-0.005c0.1-0.555,0.205-1.105,0.317-1.658c0.114-0.553,0.231-1.099,0.353-1.638
		l1.378-5.53c0.008-0.097,0.03-0.18,0.066-0.252c0.035-0.073,0.094-0.135,0.172-0.185c0.079-0.049,0.191-0.099,0.342-0.146
		c0.147-0.051,0.339-0.1,0.572-0.146c0.322-0.066,0.578-0.107,0.767-0.124s0.324,0,0.41,0.048c0.084,0.049,0.128,0.134,0.129,0.254
		c0.002,0.121-0.025,0.29-0.083,0.509L140.311,49.854z"/>
	<path d="M169.937,45.513c0.005,1.438-0.161,2.732-0.496,3.888c-0.336,1.154-0.838,2.14-1.509,2.95
		c-0.67,0.812-1.514,1.438-2.528,1.875c-1.014,0.438-2.199,0.658-3.555,0.663c-1.337,0.004-2.493-0.19-3.47-0.589
		c-0.978-0.395-1.783-0.972-2.422-1.729c-0.64-0.759-1.116-1.699-1.432-2.824c-0.312-1.126-0.473-2.421-0.479-3.887
		c-0.004-1.399,0.162-2.674,0.497-3.818c0.335-1.146,0.84-2.119,1.516-2.922c0.675-0.805,1.521-1.424,2.536-1.862
		c1.015-0.438,2.199-0.658,3.555-0.661c1.311-0.005,2.449,0.188,3.423,0.579c0.971,0.392,1.78,0.964,2.428,1.717
		c0.647,0.754,1.132,1.688,1.45,2.798C169.77,42.801,169.934,44.075,169.937,45.513z M167.438,45.685
		c-0.003-1.008-0.097-1.942-0.275-2.809c-0.181-0.864-0.479-1.613-0.897-2.249s-0.976-1.131-1.671-1.484
		c-0.696-0.354-1.556-0.531-2.58-0.526c-1.022,0.002-1.883,0.196-2.575,0.584c-0.694,0.387-1.258,0.899-1.69,1.543
		c-0.434,0.642-0.741,1.391-0.927,2.248c-0.185,0.855-0.275,1.757-0.272,2.697c0.003,1.044,0.093,2.006,0.27,2.885
		c0.178,0.879,0.472,1.636,0.886,2.271c0.414,0.636,0.965,1.129,1.655,1.479c0.693,0.352,1.56,0.523,2.602,0.521
		c1.033-0.003,1.9-0.197,2.604-0.584c0.703-0.387,1.269-0.907,1.697-1.563c0.428-0.654,0.729-1.413,0.91-2.273
		C167.352,47.558,167.44,46.646,167.438,45.685z"/>
	<path d="M184.577,39.741c-0.022,0.173-0.055,0.319-0.09,0.444s-0.08,0.223-0.137,0.293c-0.058,0.07-0.116,0.121-0.181,0.147
		c-0.063,0.028-0.128,0.038-0.19,0.029l-6.449-0.882l-0.818,5.985l6.097,0.833c0.063,0.01,0.123,0.033,0.179,0.073
		c0.054,0.04,0.099,0.1,0.135,0.178c0.034,0.079,0.054,0.182,0.057,0.307c0.001,0.125-0.012,0.282-0.037,0.474
		c-0.022,0.173-0.055,0.317-0.088,0.438c-0.035,0.12-0.08,0.216-0.136,0.287c-0.058,0.069-0.117,0.121-0.183,0.154
		c-0.063,0.032-0.129,0.044-0.191,0.035l-6.097-0.833l-1.002,7.334c-0.009,0.062-0.034,0.123-0.079,0.177
		c-0.045,0.055-0.114,0.092-0.208,0.109c-0.097,0.02-0.219,0.03-0.365,0.033c-0.147,0.002-0.341-0.012-0.576-0.045
		c-0.219-0.028-0.401-0.065-0.554-0.109c-0.151-0.044-0.271-0.087-0.355-0.131c-0.087-0.046-0.145-0.1-0.172-0.163
		c-0.027-0.062-0.038-0.127-0.028-0.19l2.229-16.301c0.05-0.354,0.176-0.588,0.38-0.703c0.206-0.115,0.412-0.158,0.622-0.13
		l7.918,1.082c0.062,0.009,0.122,0.035,0.177,0.08c0.054,0.044,0.099,0.109,0.133,0.198c0.034,0.087,0.052,0.198,0.052,0.331
		C184.612,39.415,184.601,39.569,184.577,39.741z"/>
	<path d="M203.244,59.708c-0.047,0.141-0.091,0.26-0.135,0.36c-0.043,0.103-0.089,0.188-0.135,0.26
		c-0.047,0.07-0.1,0.132-0.154,0.182c-0.054,0.05-0.14,0.104-0.255,0.161c-0.114,0.059-0.342,0.132-0.679,0.219
		c-0.338,0.087-0.739,0.146-1.209,0.182c-0.47,0.033-0.989,0.021-1.562-0.035c-0.574-0.06-1.18-0.192-1.812-0.401
		c-1.098-0.358-2.025-0.866-2.788-1.521c-0.764-0.654-1.34-1.44-1.728-2.358c-0.388-0.917-0.576-1.955-0.566-3.112
		c0.011-1.158,0.238-2.42,0.688-3.785c0.461-1.399,1.051-2.589,1.771-3.565c0.721-0.979,1.531-1.74,2.435-2.287
		s1.874-0.871,2.914-0.974c1.04-0.101,2.113,0.029,3.219,0.394c0.486,0.159,0.944,0.361,1.377,0.604
		c0.432,0.243,0.818,0.498,1.165,0.767c0.346,0.27,0.643,0.544,0.886,0.825c0.244,0.282,0.405,0.503,0.485,0.657
		c0.077,0.156,0.125,0.271,0.14,0.344c0.016,0.071,0.021,0.153,0.016,0.242c-0.006,0.091-0.021,0.193-0.045,0.312
		c-0.022,0.116-0.062,0.254-0.113,0.41c-0.057,0.174-0.113,0.317-0.172,0.436c-0.059,0.117-0.116,0.21-0.179,0.28
		c-0.063,0.071-0.124,0.118-0.186,0.143c-0.062,0.023-0.127,0.022-0.196,0.001c-0.123-0.041-0.266-0.182-0.429-0.423
		c-0.162-0.241-0.385-0.521-0.662-0.839s-0.637-0.644-1.074-0.976s-1.004-0.61-1.693-0.838c-0.752-0.247-1.484-0.322-2.199-0.226
		c-0.717,0.099-1.389,0.365-2.017,0.807c-0.629,0.438-1.201,1.037-1.719,1.799c-0.515,0.761-0.949,1.681-1.306,2.759
		c-0.353,1.069-0.547,2.055-0.584,2.952c-0.038,0.896,0.067,1.693,0.318,2.389c0.251,0.694,0.646,1.286,1.185,1.775
		c0.534,0.489,1.201,0.864,1.998,1.126c0.673,0.223,1.287,0.332,1.846,0.332s1.045-0.044,1.468-0.132
		c0.421-0.089,0.771-0.179,1.055-0.27c0.281-0.092,0.488-0.114,0.619-0.071c0.062,0.021,0.108,0.052,0.146,0.092
		c0.035,0.041,0.055,0.104,0.058,0.186c0.002,0.082-0.014,0.19-0.043,0.325C203.357,59.341,203.31,59.508,203.244,59.708z"/>
	<path d="M217.072,68.244c-0.022,0.213-0.061,0.376-0.11,0.488c-0.049,0.111-0.122,0.183-0.216,0.207
		c-0.096,0.024-0.224,0.009-0.382-0.051c-0.16-0.06-0.366-0.149-0.622-0.274c-0.255-0.127-0.454-0.231-0.601-0.319
		c-0.146-0.087-0.252-0.164-0.313-0.23c-0.063-0.066-0.104-0.135-0.115-0.202c-0.015-0.066-0.019-0.146-0.015-0.235l0.547-4.554
		l-6.626-3.269l-3.194,3.188c-0.062,0.062-0.127,0.108-0.193,0.143c-0.065,0.033-0.147,0.05-0.244,0.049
		c-0.098-0.002-0.22-0.03-0.372-0.084c-0.151-0.056-0.343-0.14-0.572-0.252c-0.237-0.117-0.428-0.225-0.568-0.319
		c-0.143-0.095-0.229-0.188-0.264-0.274c-0.032-0.087-0.021-0.187,0.039-0.294c0.059-0.108,0.164-0.236,0.319-0.386l12.646-12.171
		c0.076-0.073,0.157-0.127,0.238-0.156c0.082-0.031,0.182-0.039,0.301-0.021s0.262,0.061,0.429,0.126
		c0.166,0.066,0.373,0.161,0.617,0.281c0.265,0.131,0.479,0.243,0.646,0.342c0.166,0.097,0.295,0.188,0.387,0.272
		c0.091,0.086,0.147,0.174,0.176,0.264c0.025,0.091,0.034,0.188,0.022,0.296L217.072,68.244z M216.654,51.793l-0.012-0.006
		l-6.664,6.59l5.543,2.732L216.654,51.793z"/>
	<path d="M226.907,74.625c-0.102,0.151-0.193,0.274-0.276,0.368c-0.084,0.094-0.167,0.165-0.249,0.215s-0.159,0.075-0.23,0.077
		c-0.072,0.001-0.144-0.021-0.212-0.065l-6.555-4.33c-0.176-0.116-0.303-0.285-0.381-0.508c-0.079-0.222-0.021-0.48,0.179-0.778
		l9.067-13.728c0.041-0.062,0.092-0.104,0.151-0.131c0.062-0.025,0.14-0.025,0.231-0.002c0.096,0.022,0.214,0.067,0.354,0.136
		c0.144,0.065,0.307,0.16,0.488,0.281c0.19,0.126,0.343,0.24,0.457,0.343c0.112,0.104,0.198,0.191,0.258,0.271
		c0.06,0.078,0.088,0.147,0.088,0.215c0.001,0.066-0.021,0.13-0.061,0.189l-8.471,12.821l5.314,3.513
		c0.068,0.047,0.115,0.104,0.145,0.17c0.027,0.066,0.036,0.146,0.027,0.231c-0.009,0.088-0.041,0.189-0.096,0.307
		C227.086,74.337,227.008,74.473,226.907,74.625z"/>
	<path d="M238.428,82.299c-0.094,0.112-0.182,0.208-0.258,0.285c-0.078,0.078-0.152,0.143-0.224,0.188
		c-0.07,0.05-0.142,0.085-0.211,0.11c-0.068,0.024-0.169,0.043-0.297,0.055c-0.13,0.012-0.365-0.006-0.711-0.053
		c-0.348-0.046-0.742-0.14-1.188-0.283c-0.448-0.145-0.928-0.351-1.438-0.618c-0.51-0.271-1.021-0.617-1.531-1.05
		c-0.881-0.743-1.554-1.562-2.016-2.455c-0.464-0.894-0.701-1.838-0.72-2.833c-0.018-0.996,0.197-2.028,0.641-3.101
		c0.439-1.07,1.126-2.154,2.052-3.255c0.951-1.126,1.942-2.008,2.978-2.646s2.071-1.04,3.114-1.209
		c1.041-0.171,2.062-0.107,3.065,0.188c1.002,0.295,1.947,0.815,2.837,1.565c0.393,0.331,0.743,0.688,1.053,1.075
		c0.309,0.387,0.573,0.77,0.794,1.146c0.22,0.377,0.391,0.743,0.511,1.096c0.122,0.354,0.188,0.618,0.205,0.793
		c0.016,0.175,0.017,0.298,0.003,0.369c-0.016,0.073-0.04,0.149-0.078,0.23s-0.092,0.173-0.157,0.271
		c-0.065,0.1-0.15,0.213-0.26,0.338c-0.116,0.142-0.226,0.254-0.321,0.341c-0.097,0.086-0.188,0.15-0.271,0.192
		s-0.158,0.062-0.225,0.062c-0.064-0.002-0.126-0.024-0.184-0.072c-0.099-0.083-0.178-0.268-0.238-0.553
		c-0.062-0.285-0.161-0.627-0.299-1.024c-0.142-0.397-0.352-0.835-0.634-1.308s-0.7-0.94-1.258-1.409
		c-0.604-0.512-1.257-0.854-1.956-1.031c-0.7-0.177-1.424-0.181-2.172-0.007c-0.747,0.172-1.502,0.515-2.266,1.025
		s-1.512,1.201-2.243,2.069c-0.727,0.86-1.273,1.7-1.646,2.52c-0.371,0.817-0.568,1.598-0.597,2.335
		c-0.026,0.737,0.117,1.436,0.432,2.09c0.315,0.653,0.793,1.252,1.435,1.792c0.541,0.457,1.071,0.79,1.587,0.997
		c0.518,0.21,0.987,0.352,1.41,0.427c0.425,0.077,0.783,0.125,1.078,0.146c0.295,0.021,0.496,0.075,0.603,0.165
		c0.05,0.042,0.083,0.089,0.101,0.14c0.019,0.051,0.012,0.113-0.019,0.189c-0.028,0.078-0.081,0.175-0.16,0.287
		C238.672,82.001,238.563,82.139,238.428,82.299z"/>
	<path d="M252.338,91.623c-0.811,0.715-1.637,1.233-2.479,1.56c-0.845,0.323-1.68,0.46-2.508,0.407
		c-0.826-0.051-1.632-0.292-2.416-0.725c-0.785-0.432-1.53-1.049-2.24-1.852c-0.647-0.735-1.133-1.498-1.452-2.289
		c-0.32-0.792-0.465-1.587-0.432-2.388c0.033-0.799,0.26-1.591,0.679-2.375c0.419-0.785,1.035-1.538,1.853-2.26l8.267-7.3
		c0.057-0.049,0.115-0.076,0.182-0.086c0.064-0.01,0.141,0.011,0.226,0.059s0.187,0.118,0.299,0.213
		c0.114,0.096,0.251,0.23,0.408,0.409c0.146,0.165,0.261,0.312,0.347,0.444s0.146,0.241,0.18,0.327s0.043,0.161,0.024,0.227
		c-0.018,0.062-0.054,0.12-0.106,0.168l-8.05,7.107c-0.618,0.546-1.092,1.098-1.418,1.653c-0.324,0.558-0.517,1.113-0.568,1.667
		c-0.055,0.556,0.02,1.102,0.22,1.64c0.201,0.537,0.521,1.058,0.965,1.56c0.453,0.514,0.935,0.904,1.438,1.174
		s1.031,0.408,1.579,0.419c0.547,0.013,1.107-0.105,1.687-0.353c0.575-0.247,1.163-0.634,1.759-1.161l8.144-7.188
		c0.057-0.05,0.115-0.078,0.182-0.088c0.065-0.009,0.141,0.012,0.226,0.059c0.085,0.049,0.187,0.121,0.304,0.22
		c0.117,0.098,0.253,0.231,0.402,0.403c0.146,0.165,0.26,0.312,0.344,0.438c0.082,0.129,0.142,0.236,0.175,0.322
		c0.032,0.087,0.043,0.163,0.028,0.229c-0.016,0.066-0.05,0.125-0.104,0.174L252.338,91.623z"/>
	<path d="M269.876,99.369c-0.146,0.096-0.274,0.172-0.395,0.226c-0.117,0.057-0.219,0.089-0.308,0.098
		c-0.088,0.009-0.163-0.003-0.229-0.031c-0.062-0.029-0.112-0.075-0.153-0.137l-2.75-4.175l-12.867,8.477
		c-0.062,0.04-0.125,0.06-0.19,0.06c-0.064-0.001-0.138-0.029-0.215-0.089s-0.167-0.146-0.27-0.259s-0.217-0.268-0.342-0.457
		c-0.121-0.185-0.216-0.348-0.282-0.489c-0.064-0.143-0.11-0.261-0.134-0.354c-0.022-0.095-0.022-0.172,0.003-0.231
		c0.024-0.062,0.068-0.11,0.131-0.151l12.867-8.476l-2.749-4.175c-0.04-0.062-0.062-0.127-0.062-0.196
		c-0.003-0.069,0.021-0.142,0.062-0.215c0.046-0.074,0.113-0.154,0.209-0.245c0.094-0.089,0.215-0.182,0.358-0.276
		c0.146-0.097,0.279-0.171,0.401-0.226c0.124-0.054,0.23-0.088,0.32-0.104c0.088-0.016,0.163-0.008,0.229,0.021
		c0.062,0.029,0.114,0.075,0.155,0.138l6.798,10.32c0.04,0.062,0.062,0.127,0.063,0.197c0.002,0.068-0.021,0.146-0.066,0.225
		c-0.046,0.079-0.118,0.163-0.221,0.252C270.145,99.182,270.021,99.273,269.876,99.369z"/>
	<path d="M276.897,113.319c-0.155,0.076-0.296,0.136-0.419,0.176s-0.229,0.06-0.316,0.056c-0.089-0.002-0.161-0.021-0.22-0.06
		c-0.062-0.037-0.105-0.09-0.139-0.154l-2.205-4.485l-13.827,6.798c-0.064,0.033-0.132,0.045-0.196,0.036
		c-0.065-0.01-0.135-0.047-0.201-0.115c-0.069-0.066-0.146-0.165-0.235-0.29c-0.086-0.126-0.182-0.29-0.281-0.495
		c-0.097-0.197-0.17-0.371-0.218-0.521c-0.049-0.15-0.078-0.272-0.091-0.369c-0.012-0.098,0-0.173,0.033-0.229
		c0.033-0.059,0.082-0.104,0.147-0.136l13.826-6.798l-2.204-4.485c-0.032-0.064-0.046-0.134-0.039-0.202
		c0.007-0.069,0.037-0.14,0.091-0.205c0.054-0.066,0.133-0.141,0.237-0.217c0.104-0.077,0.234-0.154,0.393-0.23
		c0.156-0.076,0.298-0.135,0.429-0.173c0.129-0.037,0.237-0.059,0.328-0.062c0.091-0.005,0.165,0.013,0.226,0.05
		c0.059,0.037,0.104,0.089,0.137,0.154l5.453,11.092c0.032,0.065,0.046,0.134,0.039,0.203c-0.007,0.068-0.038,0.142-0.095,0.214
		c-0.057,0.073-0.14,0.146-0.251,0.224C277.188,113.166,277.054,113.242,276.897,113.319z"/>
	<path d="M267.022,132.871c-0.166,0.137-0.307,0.229-0.42,0.272c-0.115,0.046-0.216,0.045-0.302-0.003
		c-0.085-0.048-0.162-0.146-0.237-0.302c-0.074-0.152-0.158-0.362-0.254-0.631s-0.164-0.482-0.209-0.646
		c-0.044-0.164-0.064-0.293-0.062-0.386c0.001-0.094,0.021-0.168,0.059-0.226c0.037-0.058,0.09-0.117,0.154-0.18l3.563-2.889
		l-2.479-6.961l-4.513,0.062c-0.087,0.002-0.165-0.009-0.236-0.03c-0.07-0.023-0.142-0.069-0.209-0.139
		c-0.066-0.067-0.138-0.175-0.208-0.318c-0.07-0.146-0.149-0.338-0.234-0.579c-0.091-0.25-0.151-0.459-0.188-0.626
		c-0.036-0.168-0.034-0.294,0.003-0.381c0.036-0.086,0.113-0.146,0.231-0.186c0.117-0.037,0.285-0.056,0.5-0.055l17.549,0.076
		c0.106,0,0.2,0.02,0.28,0.053c0.081,0.034,0.157,0.101,0.229,0.195c0.071,0.095,0.146,0.225,0.219,0.389
		c0.073,0.163,0.155,0.374,0.247,0.635c0.1,0.274,0.175,0.506,0.227,0.691c0.052,0.187,0.079,0.341,0.085,0.465
		c0.005,0.124-0.013,0.229-0.059,0.312c-0.043,0.083-0.104,0.159-0.188,0.229L267.022,132.871z M278.181,120.776l-0.004-0.013
		l-9.371,0.087l2.072,5.82L278.181,120.776z"/>
</g>
<path id="uerer_Ring" fill="none" stroke="#000000" stroke-width="3.5" d="M297.563,162.067
	c0,74.617-60.485,135.103-135.104,135.103c-74.622,0-135.104-60.483-135.104-135.103c0-74.614,60.482-135.102,135.104-135.102
	C237.077,26.966,297.563,87.453,297.563,162.067z"/>
<path id="uerster_Ring" fill="none" stroke="#000000" stroke-width="3.5" d="M308.37,162.067
	c0,80.586-65.325,145.908-145.911,145.908c-80.591,0-145.915-65.322-145.915-145.908c0-80.585,65.323-145.908,145.915-145.908
	C243.045,16.159,308.37,81.482,308.37,162.067z"/>
<circle cx="277.459" cy="148.944" r="5.251"/>
<circle cx="45.709" cy="148.944" r="5.251"/>
<circle fill="none" cx="162.443" cy="122.149" r="4.087"/>
<path fill="none" d="M187.78,130.951c-1.599,1.598-1.6,4.185,0,5.781c1.594,1.595,4.184,1.595,5.78,0
	c1.595-1.598,1.595-4.188,0-5.781C191.964,129.356,189.374,129.356,187.78,130.951z"/>
<path fill="none" d="M202.36,157.979c-2.262,0.001-4.09,1.828-4.09,4.088c0.003,2.259,1.832,4.086,4.087,4.087
	c2.26,0,4.091-1.828,4.09-4.088C206.444,159.809,204.616,157.979,202.36,157.979z"/>
<path fill="none" d="M187.773,187.4c-1.593,1.598-1.591,4.186,0,5.781c1.601,1.595,4.189,1.597,5.786,0
	c1.594-1.598,1.596-4.184,0-5.779C191.957,185.802,189.373,185.802,187.773,187.4z"/>
<path fill="none" d="M122.529,157.979c-2.26,0-4.092,1.828-4.087,4.087c0,2.26,1.827,4.087,4.081,4.087
	c2.266,0,4.094-1.827,4.094-4.087C126.616,159.809,124.782,157.98,122.529,157.979z"/>
<path fill="none" d="M131.33,187.397c-1.601,1.601-1.601,4.188,0,5.783c1.598,1.596,4.182,1.596,5.775,0.002
	c1.6-1.602,1.6-4.186,0.004-5.785C135.514,185.801,132.924,185.806,131.33,187.397z"/>
<path fill="none" d="M137.11,136.733c1.596-1.595,1.592-4.188,0-5.779c-1.598-1.598-4.187-1.602-5.779-0.001
	c-1.598,1.598-1.599,4.182-0.003,5.776C132.926,138.33,135.512,138.327,137.11,136.733z"/>
<path fill="none" d="M162.442,197.893c-2.257,0-4.086,1.834-4.087,4.086c0.001,2.261,1.83,4.09,4.088,4.088s4.085-1.827,4.085-4.082
	C166.528,199.721,164.7,197.893,162.442,197.893z"/>
<path fill="none" d="M126.616,162.066c0-2.257-1.834-4.086-4.088-4.087c-2.26,0-4.092,1.828-4.087,4.087
	c0,2.26,1.827,4.087,4.081,4.087C124.788,166.153,126.616,164.325,126.616,162.066z"/>
<path fill="none" d="M131.33,187.397c-1.601,1.601-1.601,4.188,0,5.783c1.598,1.596,4.182,1.596,5.775,0.002
	c1.6-1.602,1.6-4.186,0.004-5.785C135.514,185.801,132.924,185.806,131.33,187.397z"/>
<path fill="none" d="M137.11,136.733c1.596-1.595,1.592-4.188,0-5.779c-1.598-1.598-4.187-1.602-5.779-0.001
	c-1.598,1.598-1.599,4.182-0.003,5.776C132.926,138.33,135.512,138.327,137.11,136.733z"/>
<path fill="none" d="M193.56,136.733c1.595-1.598,1.595-4.188,0-5.781c-1.597-1.596-4.187-1.596-5.78,0
	c-1.599,1.598-1.6,4.185,0,5.781C189.373,138.327,191.963,138.327,193.56,136.733z"/>
<circle fill="none" cx="162.443" cy="122.149" r="4.087"/>
<path fill="none" d="M162.442,197.893c-2.257,0-4.086,1.834-4.087,4.086c0.001,2.261,1.83,4.09,4.088,4.088s4.085-1.827,4.085-4.082
	C166.528,199.721,164.7,197.893,162.442,197.893z"/>
<path fill="none" d="M202.36,157.979c-2.262,0.001-4.09,1.828-4.09,4.088c0.003,2.259,1.832,4.086,4.087,4.087
	c2.26,0,4.091-1.828,4.09-4.088C206.444,159.809,204.616,157.979,202.36,157.979z"/>
<path fill="none" d="M187.773,187.4c-1.593,1.598-1.591,4.186,0,5.781c1.601,1.595,4.189,1.597,5.786,0
	c1.594-1.598,1.596-4.184,0-5.779C191.957,185.802,189.373,185.802,187.773,187.4z"/>
<path d="M180.436,118.622c-23.989-9.937-51.498,1.45-61.437,25.449c-9.936,23.993,1.456,51.498,25.45,61.435
	c23.987,9.938,51.497-1.454,61.438-25.442C215.825,156.064,204.426,128.555,180.436,118.622z M187.78,130.951
	c1.595-1.596,4.185-1.596,5.78,0c1.595,1.595,1.595,4.185,0,5.781c-1.598,1.595-4.188,1.595-5.78,0
	C186.18,135.135,186.181,132.549,187.78,130.951z M162.443,118.062c2.258,0,4.087,1.83,4.087,4.087c0,2.258-1.829,4.087-4.087,4.087
	c-2.257,0-4.087-1.829-4.087-4.087C158.356,119.892,160.186,118.062,162.443,118.062z M131.33,130.952
	c1.594-1.601,4.183-1.597,5.779,0.001c1.592,1.592,1.596,4.186,0,5.779c-1.598,1.595-4.185,1.598-5.782-0.004
	C129.732,135.134,129.733,132.55,131.33,130.952z M118.442,162.066c-0.005-2.259,1.827-4.087,4.087-4.087
	c2.254,0.001,4.088,1.83,4.088,4.087c0,2.26-1.828,4.087-4.094,4.087C120.269,166.153,118.442,164.325,118.442,162.066z
	 M137.106,193.182c-1.595,1.594-4.179,1.594-5.775-0.002c-1.601-1.596-1.601-4.184,0-5.783c1.594-1.591,4.185-1.597,5.779,0
	C138.705,188.997,138.705,191.581,137.106,193.182z M162.443,206.067c-2.258,0.002-4.087-1.827-4.088-4.088
	c0.001-2.252,1.83-4.086,4.087-4.086c2.259,0,4.086,1.828,4.086,4.092C166.528,204.24,164.7,206.065,162.443,206.067z
	 M193.559,193.181c-1.597,1.597-4.187,1.595-5.786,0c-1.591-1.597-1.593-4.185,0-5.781c1.601-1.599,4.185-1.599,5.786,0.002
	C195.155,188.998,195.153,191.584,193.559,193.181z M203.245,178.894c-1.828,4.45-15.033,2.14-18.427,5.549
	c-3.377,3.396-1.004,16.526-5.425,18.373c-4.44,1.854-12.142-9.115-16.951-9.104c-4.79,0.013-12.4,10.977-16.831,9.154
	c-4.446-1.83-2.136-15.029-5.546-18.423c-3.396-3.381-16.528-1.009-18.372-5.43c-1.853-4.438,9.117-12.139,9.104-16.947
	c-0.013-4.79-10.979-12.403-9.154-16.834c1.83-4.446,15.03-2.133,18.423-5.542c3.379-3.396,1.009-16.533,5.43-18.379
	c4.438-1.853,12.138,9.123,16.946,9.109c4.793-0.012,12.405-10.979,16.834-9.156c4.447,1.831,2.133,15.033,5.542,18.426
	c3.395,3.378,16.53,1.002,18.376,5.424c1.854,4.438-9.121,12.141-9.107,16.952C194.101,166.857,205.067,174.464,203.245,178.894z
	 M202.357,166.154c-2.255-0.001-4.084-1.828-4.087-4.087c0-2.26,1.828-4.087,4.09-4.088c2.257,0,4.084,1.83,4.087,4.087
	C206.448,164.325,204.616,166.154,202.357,166.154z"/>
<path fill="none" d="M203.195,145.114c-1.846-4.422-14.981-2.046-18.376-5.424c-3.409-3.393-1.095-16.596-5.542-18.426
	c-4.429-1.822-12.041,9.146-16.834,9.156c-4.81,0.014-12.509-10.962-16.946-9.109c-4.421,1.846-2.051,14.982-5.43,18.379
	c-3.393,3.409-16.593,1.096-18.423,5.542c-1.823,4.431,9.143,12.044,9.154,16.834c0.013,4.81-10.957,12.51-9.104,16.947
	c1.844,4.421,14.977,2.049,18.372,5.43c3.41,3.394,1.1,16.593,5.546,18.423c4.431,1.821,12.041-9.143,16.831-9.154
	c4.811-0.011,12.511,10.959,16.951,9.104c4.421-1.847,2.048-14.978,5.425-18.373c3.394-3.409,16.599-1.099,18.427-5.549
	c1.821-4.431-9.145-12.037-9.158-16.828C194.073,157.254,205.049,149.552,203.195,145.114z M183.297,170.706
	c-4.771,11.514-17.978,16.98-29.491,12.213c-11.518-4.771-16.985-17.974-12.216-29.491c4.771-11.518,17.976-16.984,29.49-12.215
	C182.594,145.98,188.066,159.185,183.297,170.706z"/>
<path fill="none" d="M171.08,141.213c-11.516-4.771-24.721,0.697-29.49,12.215c-4.771,11.519,0.698,24.721,12.216,29.491
	c11.515,4.769,24.721-0.699,29.491-12.213C188.066,159.185,182.594,145.98,171.08,141.213z M148.731,158.934
	c0.348-1.514,1.854-2.462,3.366-2.111c1.521,0.341,2.465,1.85,2.117,3.364c-0.344,1.514-1.854,2.462-3.365,2.114
	C149.337,161.955,148.384,160.449,148.731,158.934z M155.4,171.276c-1.213,0.966-2.986,0.772-3.954-0.44
	c-0.967-1.218-0.769-2.985,0.448-3.951c1.213-0.976,2.98-0.772,3.951,0.443C156.812,168.538,156.615,170.312,155.4,171.276z
	 M155.028,153.148c-0.672-1.398-0.088-3.082,1.313-3.754c1.396-0.675,3.081-0.086,3.749,1.312c0.682,1.401,0.092,3.081-1.311,3.757
	C157.384,155.134,155.701,154.548,155.028,153.148z M162.442,176.128c-1.554,0-2.812-1.26-2.812-2.812
	c0-1.554,1.26-2.812,2.812-2.812s2.812,1.26,2.812,2.812S163.995,176.128,162.442,176.128z M162.442,164.879
	c-1.554,0-2.812-1.26-2.812-2.812s1.26-2.812,2.812-2.812s2.812,1.261,2.812,2.812C165.255,163.619,163.995,164.879,162.442,164.879
	z M166.102,154.463c-1.396-0.675-1.985-2.354-1.312-3.757c0.676-1.396,2.354-1.988,3.756-1.312c1.396,0.672,1.985,2.354,1.312,3.75
	C169.184,154.548,167.504,155.134,166.102,154.463z M173.436,170.835c-0.967,1.213-2.736,1.41-3.95,0.442
	c-1.216-0.967-1.415-2.737-0.444-3.952c0.969-1.216,2.735-1.412,3.952-0.445C174.206,167.849,174.408,169.618,173.436,170.835z
	 M174.039,162.302c-1.518,0.348-3.022-0.601-3.37-2.114c-0.345-1.516,0.603-3.021,2.117-3.368c1.512-0.344,3.022,0.602,3.367,2.118
	C176.5,160.449,175.55,161.956,174.039,162.302z"/>
<circle cx="162.442" cy="162.066" r="2.813"/>
<circle cx="162.442" cy="173.315" r="2.813"/>
<path d="M172.993,166.88c-1.217-0.967-2.984-0.771-3.952,0.445c-0.971,1.215-0.771,2.985,0.444,3.952
	c1.214,0.968,2.982,0.771,3.95-0.442C174.408,169.618,174.206,167.849,172.993,166.88z"/>
<path d="M172.786,156.819c-1.516,0.347-2.462,1.854-2.117,3.368c0.348,1.515,1.854,2.462,3.37,2.114
	c1.511-0.346,2.461-1.853,2.114-3.364C175.809,157.42,174.298,156.475,172.786,156.819z"/>
<path d="M169.858,153.145c0.674-1.396,0.085-3.078-1.312-3.75c-1.4-0.678-3.08-0.085-3.756,1.312
	c-0.674,1.401-0.085,3.082,1.312,3.757C167.504,155.134,169.184,154.548,169.858,153.145z"/>
<path d="M160.091,150.706c-0.668-1.397-2.353-1.986-3.749-1.312c-1.401,0.672-1.985,2.354-1.313,3.754
	c0.674,1.399,2.355,1.985,3.753,1.314C160.182,153.787,160.772,152.108,160.091,150.706z"/>
<path d="M154.215,160.187c0.348-1.516-0.597-3.023-2.117-3.364c-1.513-0.351-3.02,0.599-3.366,2.111
	c-0.348,1.516,0.605,3.021,2.118,3.367C152.362,162.649,153.871,161.7,154.215,160.187z"/>
<path d="M151.894,166.884c-1.217,0.966-1.415,2.733-0.448,3.951c0.968,1.214,2.741,1.406,3.954,0.44
	c1.216-0.964,1.412-2.737,0.445-3.948C154.875,166.111,153.107,165.908,151.894,166.884z"/>
</svg>
