<?xml version="1.0" encoding="UTF-8" standalone="no"?>
<svg
   version="1.0"
   width="316"
   height="316"
   viewBox="0 0 236.99999 236.99999"
   preserveAspectRatio="xMidYMid meet"
   id="svg139"
   sodipodi:docname="2.svg"
   inkscape:version="1.1 (c68e22c387, 2021-05-23)"
   xmlns:inkscape="http://www.inkscape.org/namespaces/inkscape"
   xmlns:sodipodi="http://sodipodi.sourceforge.net/DTD/sodipodi-0.dtd"
   xmlns="http://www.w3.org/2000/svg"
   xmlns:svg="http://www.w3.org/2000/svg">
  <defs
     id="defs143" />
  <sodipodi:namedview
     id="namedview141"
     pagecolor="#ffffff"
     bordercolor="#666666"
     borderopacity="1.0"
     inkscape:pageshadow="2"
     inkscape:pageopacity="0.0"
     inkscape:pagecheckerboard="0"
     inkscape:document-units="pt"
     showgrid="false"
     units="px"
     width="316px"
     inkscape:showpageshadow="false"
     inkscape:zoom="1.1039267"
     inkscape:cx="298.47996"
     inkscape:cy="195.21224"
     inkscape:window-width="1366"
     inkscape:window-height="705"
     inkscape:window-x="-8"
     inkscape:window-y="-8"
     inkscape:window-maximized="1"
     inkscape:current-layer="svg139" />
  <metadata
     id="metadata9">
Created by potrace 1.16, written by Peter Selinger 2001-2019
</metadata>
  <g
     transform="matrix(0.011625,0,0,-0.01162475,2.1094272,234.49374)"
     fill="#000000"
     stroke="none"
     id="g137"
     style="fill:#d40000;stroke-width:8.60221">
    <path
       d="m 9865,19988 c -11,-7 -57,-26 -102,-42 -174,-65 -296,-198 -364,-395 -23,-66 -25,-178 -4,-311 23,-152 35,-137 -112,-142 -71,-3 -130,-4 -132,-2 -2,2 2,57 9,123 12,109 11,128 -4,185 -40,146 -186,332 -314,399 -138,73 -327,98 -462,62 -143,-38 -300,-153 -382,-280 -65,-100 -80,-169 -76,-347 l 3,-153 45,-87 c 24,-48 42,-89 40,-92 -3,-2 -66,-17 -140,-34 l -135,-29 -8,76 c -18,187 -51,281 -136,387 -77,97 -215,186 -343,220 -69,18 -218,18 -288,-1 -125,-33 -281,-136 -356,-237 -102,-134 -124,-201 -124,-378 0,-157 14,-205 94,-326 l 55,-82 -120,-56 c -66,-31 -122,-56 -124,-56 -3,0 -5,12 -5,28 0,49 -56,188 -103,260 -67,100 -159,182 -263,234 l -87,43 -137,3 c -102,3 -154,0 -201,-12 -203,-51 -369,-200 -428,-384 -21,-63 -22,-86 -19,-239 l 3,-169 37,-75 c 20,-41 58,-99 83,-129 26,-30 55,-67 66,-82 l 19,-26 -118,-69 -118,-70 -17,65 c -24,90 -75,169 -164,252 -85,79 -213,149 -315,171 -79,17 -237,7 -313,-20 -162,-58 -305,-182 -377,-328 l -43,-86 -3,-134 c -4,-154 12,-247 58,-340 35,-69 111,-157 181,-209 l 51,-37 -93,-93 c -52,-52 -96,-94 -99,-94 -3,0 -38,45 -78,100 -95,128 -157,189 -235,227 -96,48 -169,63 -305,63 -232,0 -323,-54 -514,-302 l -75,-97 -13,-105 c -16,-133 -3,-276 33,-356 52,-116 153,-221 294,-305 l 63,-37 -82,-97 c -44,-53 -84,-100 -88,-104 -4,-4 -54,39 -111,95 -76,76 -124,114 -179,143 l -75,40 h -186 -186 l -87,-43 c -145,-72 -261,-204 -324,-370 -24,-60 -26,-81 -26,-202 0,-124 2,-141 27,-205 77,-193 243,-352 408,-389 l 48,-11 -66,-118 c -37,-64 -70,-117 -74,-117 -5,0 -34,22 -66,48 -164,136 -209,152 -415,152 -84,0 -173,-5 -198,-11 -191,-44 -362,-224 -416,-439 -24,-94 -16,-303 15,-381 80,-207 279,-367 478,-386 59,-5 63,-7 57,-27 -26,-83 -87,-246 -93,-246 -4,0 -34,16 -67,37 -161,99 -138,93 -336,93 -157,0 -184,-2 -235,-21 -155,-58 -295,-194 -376,-367 -28,-59 -32,-79 -35,-173 -3,-86 0,-121 18,-185 48,-178 118,-272 291,-394 l 97,-68 141,-13 c 135,-12 142,-14 137,-34 -3,-11 -15,-68 -27,-127 -19,-90 -26,-108 -41,-108 -10,0 -56,16 -102,35 -84,35 -86,35 -233,35 -129,0 -157,-3 -213,-23 -184,-66 -326,-224 -390,-436 -19,-62 -22,-89 -18,-184 4,-92 10,-124 33,-182 64,-161 185,-294 334,-368 l 84,-42 h 170 169 l -6,-40 c -3,-22 -9,-79 -13,-127 -7,-100 -8,-101 -99,-73 -32,10 -92,15 -174,15 -142,-1 -211,-18 -314,-80 -107,-65 -166,-134 -240,-284 L 0,10122 v -106 c 0,-72 5,-116 14,-134 8,-15 28,-67 45,-115 60,-172 165,-277 353,-355 81,-34 195,-40 341,-18 159,24 143,34 151,-96 4,-62 9,-120 11,-128 4,-13 -19,-15 -168,-15 H 573 l -84,-42 c -149,-74 -270,-207 -334,-368 -37,-92 -46,-246 -21,-345 56,-220 224,-408 415,-464 40,-12 97,-16 210,-16 h 156 l 69,35 c 110,55 107,57 143,-92 l 30,-128 -46,-7 c -25,-3 -92,-7 -148,-7 -58,-1 -103,-5 -103,-11 0,-5 -44,-40 -98,-78 -170,-121 -234,-209 -282,-386 -18,-65 -21,-99 -18,-190 3,-99 7,-118 34,-176 89,-186 266,-334 462,-384 35,-10 102,-16 161,-16 120,0 154,11 290,93 52,31 97,57 101,57 4,0 29,-57 57,-128 l 51,-127 -86,-17 c -231,-46 -421,-219 -477,-433 -20,-78 -20,-262 0,-340 51,-200 207,-371 387,-426 60,-18 89,-21 236,-18 l 168,4 75,37 c 40,21 110,67 153,102 44,36 82,63 85,60 3,-2 35,-55 71,-117 l 67,-112 -77,-25 c -98,-32 -164,-75 -243,-160 -76,-80 -127,-167 -157,-268 -31,-101 -25,-264 12,-364 61,-164 179,-298 324,-370 l 87,-43 134,-3 c 155,-5 247,12 344,60 59,30 172,129 217,193 l 22,30 96,-98 95,-98 -48,-25 c -108,-53 -231,-184 -296,-313 l -42,-84 v -156 c 0,-180 15,-241 87,-353 55,-86 91,-122 175,-178 110,-73 174,-92 328,-97 120,-5 136,-3 206,20 42,14 105,43 140,63 87,51 200,166 235,241 l 28,60 103,-86 c 57,-47 103,-88 103,-91 -1,-3 -25,-22 -56,-43 -99,-69 -178,-193 -215,-335 -26,-102 -26,-286 -1,-369 47,-149 174,-284 343,-363 104,-48 179,-63 293,-58 164,7 282,63 417,197 82,82 136,175 146,250 l 6,41 81,-44 c 45,-24 100,-55 123,-68 l 42,-24 -65,-80 c -35,-43 -81,-113 -102,-153 l -37,-75 -4,-157 c -2,-93 2,-179 8,-210 42,-195 221,-369 436,-424 92,-23 290,-20 368,6 212,71 385,281 405,492 3,36 9,57 16,54 6,-2 68,-23 137,-47 l 125,-44 -58,-99 c -90,-152 -98,-177 -98,-320 0,-137 10,-182 65,-286 71,-135 211,-257 353,-307 58,-20 86,-24 208,-24 211,0 312,38 439,165 119,118 175,252 175,417 0,48 3,88 8,88 4,0 64,-12 135,-27 149,-31 146,-27 91,-139 l -36,-73 4,-174 3,-174 44,-87 c 71,-144 195,-256 356,-321 90,-37 254,-46 356,-21 190,48 341,176 439,374 44,89 51,148 36,282 -7,63 -11,117 -10,119 2,2 41,-1 86,-7 46,-7 104,-12 131,-12 54,0 55,-3 32,-90 -23,-84 -20,-282 5,-354 36,-106 82,-178 165,-262 66,-66 93,-85 150,-109 39,-15 94,-39 124,-52 45,-19 70,-23 161,-23 91,0 116,4 161,23 30,13 85,37 124,53 166,68 313,275 337,477 8,65 6,100 -12,208 -12,72 -20,132 -18,133 1,2 62,6 135,9 l 132,5 -4,-27 c -16,-90 -23,-218 -15,-259 31,-163 184,-359 342,-436 111,-54 182,-69 312,-64 93,3 122,9 181,33 161,65 285,177 356,321 l 44,87 3,174 4,174 -36,73 c -55,112 -58,108 92,139 70,15 130,27 135,27 4,0 7,-40 7,-88 0,-48 7,-114 15,-146 51,-194 215,-364 404,-420 70,-20 294,-22 367,-2 160,42 327,183 405,340 l 44,89 3,148 c 4,168 4,168 -95,342 -30,54 -53,100 -51,103 5,4 254,94 262,94 2,0 6,-26 9,-57 19,-211 192,-421 404,-492 78,-26 276,-29 368,-6 215,55 394,229 436,424 6,31 10,117 8,210 l -4,157 -37,75 c -21,40 -67,110 -102,153 l -65,80 42,24 c 23,13 78,44 123,68 l 81,44 6,-41 c 10,-77 65,-168 152,-254 138,-137 263,-195 417,-195 117,0 199,20 318,78 126,61 228,160 286,277 l 39,79 v 185 186 l -33,70 c -44,92 -101,165 -184,233 l -68,56 92,93 c 51,51 95,93 98,93 3,0 37,-44 77,-98 127,-172 195,-225 351,-272 64,-20 89,-22 200,-17 154,6 220,26 331,101 123,84 210,210 247,355 25,101 16,286 -18,369 -64,154 -181,292 -296,349 l -63,32 96,98 95,98 22,-30 c 45,-64 158,-163 217,-193 97,-48 189,-65 344,-60 l 134,3 86,43 c 146,72 270,215 328,377 30,84 37,247 15,335 -26,102 -81,202 -155,282 -80,87 -162,142 -253,169 -37,12 -68,23 -68,25 0,3 30,56 66,120 46,79 70,112 78,106 6,-5 47,-37 91,-72 44,-35 109,-77 145,-94 63,-30 71,-31 222,-34 92,-2 179,1 209,7 195,42 369,222 424,436 20,78 20,262 0,340 -25,96 -73,173 -160,261 -96,97 -186,146 -316,172 l -86,17 49,128 c 28,70 54,127 58,127 4,0 49,-26 101,-57 136,-82 170,-93 290,-93 119,0 194,17 293,67 145,72 262,191 330,333 27,57 31,78 34,170 4,121 -11,203 -58,306 -64,142 -171,257 -294,315 -69,33 -125,45 -252,56 l -91,8 30,128 c 25,104 34,127 49,127 9,0 52,-14 95,-32 73,-30 88,-32 222,-36 178,-5 239,9 344,78 118,77 212,197 265,338 33,90 42,257 18,351 -29,111 -73,188 -161,277 -140,142 -293,199 -511,192 l -116,-3 6,40 c 3,22 8,79 12,128 8,101 -6,94 151,71 200,-30 311,-12 451,74 124,74 195,163 243,299 17,48 37,100 45,115 9,18 14,62 14,133 v 105 l -56,115 c -82,170 -138,237 -260,310 -95,58 -167,75 -308,75 -80,0 -140,-5 -172,-15 -27,-8 -61,-15 -76,-15 h -28 l -1,78 c 0,42 -4,100 -8,127 l -7,50 151,-3 c 134,-3 158,-1 215,18 247,83 430,334 430,591 0,110 -11,160 -60,264 -69,150 -187,277 -310,334 -51,24 -66,26 -227,29 l -171,3 -86,-35 c -121,-50 -121,-50 -140,37 -9,39 -23,98 -30,129 l -14,56 77,6 c 128,10 192,25 280,67 68,32 100,55 161,117 124,127 180,266 180,455 0,166 -48,265 -205,422 -80,80 -116,109 -179,140 l -79,40 -144,3 c -171,4 -187,0 -334,-87 -56,-34 -106,-61 -110,-61 -4,0 -29,57 -57,128 l -49,127 86,17 c 229,46 420,219 476,433 20,78 20,262 0,340 -55,214 -229,394 -424,436 -30,6 -118,9 -214,7 -152,-3 -165,-5 -217,-30 -30,-15 -86,-52 -125,-82 -38,-31 -82,-65 -97,-76 l -26,-20 -70,117 -70,118 68,21 c 90,28 146,62 225,135 73,68 134,160 173,258 24,60 26,79 26,201 0,121 -2,142 -26,202 -63,166 -179,298 -324,370 l -87,43 h -187 -186 l -69,-35 c -53,-26 -95,-60 -175,-140 l -105,-105 -94,97 c -52,54 -93,99 -90,101 2,2 44,30 94,62 151,97 238,204 279,344 24,81 22,256 -5,351 -54,197 -208,362 -398,427 -54,18 -88,23 -187,23 -140,0 -216,-18 -324,-78 -90,-49 -209,-170 -246,-248 l -28,-61 -101,84 c -55,46 -100,88 -100,92 0,4 29,33 65,63 82,69 139,143 182,233 32,69 33,73 36,227 3,125 0,169 -13,215 -31,106 -111,218 -209,291 -235,174 -503,190 -727,43 -138,-91 -251,-240 -266,-350 l -6,-41 -81,44 c -45,24 -100,55 -123,68 l -42,24 65,80 c 35,43 81,112 102,153 l 37,75 3,157 c 4,179 -5,240 -50,331 -46,91 -161,204 -258,251 -117,57 -181,69 -340,65 l -137,-3 -88,-44 c -106,-52 -221,-159 -279,-260 -41,-71 -86,-194 -86,-236 0,-17 -5,-26 -12,-23 -7,3 -65,24 -129,48 l -116,44 45,70 c 90,141 112,217 112,391 0,92 -4,125 -21,172 -71,190 -259,352 -474,408 -74,19 -213,19 -285,0 -181,-48 -345,-194 -422,-375 -27,-65 -32,-90 -36,-187 -3,-75 -8,-113 -16,-113 -23,1 -267,56 -267,60 0,3 17,41 38,85 l 38,80 3,175 c 3,158 1,182 -17,230 -47,123 -182,262 -324,334 -97,49 -165,66 -272,66 -105,0 -182,-17 -281,-64 -155,-73 -313,-274 -344,-438 -8,-41 -1,-169 15,-259 l 4,-27 -132,5 c -73,3 -134,7 -136,9 -2,1 7,60 19,131 31,186 18,279 -59,428 -39,75 -130,180 -195,225 -23,15 -74,39 -114,54 -40,14 -86,33 -102,41 -36,19 -244,21 -275,3 z m 895,-1272 c 323,-30 585,-74 1180,-198 598,-124 771,-182 1547,-513 369,-158 650,-295 883,-431 1364,-798 2655,-2138 3358,-3485 169,-324 478,-1065 612,-1469 173,-523 321,-1256 375,-1865 34,-381 28,-1323 -10,-1705 -80,-796 -284,-1527 -717,-2569 -209,-504 -370,-807 -657,-1241 -820,-1240 -2111,-2406 -3336,-3014 -341,-169 -1039,-461 -1355,-567 -242,-81 -347,-106 -859,-209 -663,-133 -879,-163 -1296,-181 -323,-15 -1063,-5 -1275,16 -319,32 -670,88 -1040,166 -573,122 -825,203 -1465,469 -148,62 -326,134 -395,162 -313,124 -670,325 -1190,671 -434,289 -691,498 -1122,913 -1129,1088 -1793,2133 -2294,3608 -238,702 -371,1318 -426,1981 -17,203 -16,1303 1,1515 73,919 281,1682 783,2870 286,676 702,1326 1278,2000 648,757 1478,1459 2275,1926 356,208 939,472 1532,693 654,244 1607,437 2323,471 269,13 1095,4 1290,-14 z"
       id="path11"
       style="fill:#d40000;stroke-width:8.60221" />
    <path
       d="M 9440,18373 C 7417,18257 5500,17359 3980,15814 3546,15373 3198,14933 2883,14430 2158,13270 1759,12024 1638,10545 c -21,-254 -17,-1116 5,-1320 74,-674 218,-1324 435,-1965 121,-358 206,-559 373,-890 495,-980 964,-1630 1700,-2355 247,-243 406,-385 637,-570 1204,-962 2641,-1574 4142,-1765 375,-47 503,-54 1020,-55 506,0 622,5 980,46 1588,180 3094,811 4339,1818 444,360 903,819 1258,1258 999,1235 1626,2729 1802,4293 41,364 46,465 46,980 -1,529 -7,649 -56,1040 -204,1642 -890,3154 -2025,4458 -159,183 -614,640 -794,797 -1436,1254 -3124,1936 -5090,2055 -148,9 -830,11 -970,3 z m 900,-83 c 400,-14 668,-40 1060,-106 771,-128 1622,-408 2260,-741 932,-488 1829,-1120 2130,-1503 35,-44 99,-110 143,-147 129,-109 351,-360 586,-661 322,-414 689,-998 936,-1491 414,-826 691,-1768 794,-2696 69,-617 63,-1397 -15,-2015 -115,-918 -419,-1892 -831,-2665 -498,-934 -1098,-1772 -1484,-2073 -37,-29 -85,-76 -109,-106 -23,-31 -103,-115 -179,-188 -311,-303 -895,-730 -1471,-1075 -324,-195 -470,-269 -840,-424 -823,-345 -956,-388 -1585,-513 -685,-135 -886,-161 -1382,-178 -274,-9 -432,-9 -705,0 -514,17 -727,46 -1454,193 -527,106 -711,162 -1199,367 -104,44 -273,114 -375,156 -241,101 -402,180 -635,314 -603,346 -1275,828 -1616,1160 -76,73 -156,157 -179,187 -23,30 -81,85 -128,123 -391,313 -1017,1200 -1510,2142 -373,712 -660,1644 -782,2535 -88,652 -88,1567 0,2220 140,1027 454,1974 950,2865 190,342 486,801 690,1069 256,337 525,645 662,759 40,34 102,95 137,136 126,149 479,453 836,719 156,117 624,427 839,556 254,153 467,255 829,400 1454,581 2236,728 3627,681 z"
       id="path13"
       style="fill:#d40000;stroke-width:8.60221" />
    <path
       d="m 9992,18003 c -18,-9 -45,-32 -60,-51 -35,-45 -42,-137 -17,-212 13,-39 14,-55 6,-63 -9,-9 -112,-13 -356,-15 l -345,-3 v -39 -40 h 220 220 v -155 c 0,-175 -9,-214 -59,-239 -16,-9 -50,-16 -74,-16 -62,0 -82,24 -82,102 0,53 3,63 28,84 16,13 46,27 68,30 40,7 40,7 37,48 -3,41 -3,41 -48,44 -61,5 -121,-14 -165,-51 -48,-39 -65,-81 -65,-157 0,-91 38,-154 117,-194 43,-22 185,-23 203,-1 7,8 19,15 26,15 11,0 14,-19 14,-85 v -85 h 60 60 v 165 c 0,184 7,214 59,258 40,34 90,36 117,6 15,-17 19,-35 18,-88 -1,-75 -10,-95 -61,-152 -19,-21 -33,-45 -30,-51 3,-7 26,-24 51,-38 l 47,-25 34,40 c 18,22 48,65 67,94 27,46 33,67 36,128 4,64 1,78 -22,117 -45,77 -64,86 -179,86 -79,0 -104,-3 -119,-17 -17,-15 -18,-13 -18,60 v 77 h 200 200 v 40 40 h -120 c -73,0 -120,4 -120,10 0,6 27,10 60,10 67,0 69,2 45,70 -26,73 -20,113 20,149 49,43 110,44 158,1 36,-31 94,-146 104,-204 l 6,-36 h -57 -56 v -50 -50 h 45 45 v -38 c 0,-20 -7,-118 -16,-217 -17,-191 -15,-332 6,-377 12,-25 18,-28 65,-28 h 52 l 6,63 c 3,34 13,178 23,320 l 18,257 h 38 38 v 50 50 h -39 c -38,0 -38,1 -44,44 -16,112 -97,254 -174,305 -45,30 -51,31 -152,31 -78,0 -115,-5 -139,-17 z"
       id="path15"
       style="fill:#d40000;stroke-width:8.60221" />
    <path
       d="m 8205,17829 c -33,-19 -96,-82 -111,-111 -19,-37 -18,-194 1,-228 23,-40 18,-49 -27,-52 l -43,-3 -3,-47 -3,-48 h 59 c 36,0 64,-5 70,-12 5,-7 13,-40 17,-73 4,-33 27,-141 51,-240 24,-99 47,-201 50,-227 l 7,-48 h 57 c 39,0 62,5 70,15 19,23 7,112 -33,250 -41,141 -77,309 -77,359 0,32 3,36 25,36 23,0 25,4 25,45 0,48 0,48 -60,45 -48,-2 -70,24 -76,91 -7,68 17,117 66,141 30,15 49,16 140,8 164,-15 467,-100 429,-120 -8,-4 -114,-20 -236,-36 l -223,-28 v -59 -60 l 38,6 c 20,3 69,9 107,13 l 71,6 18,-76 c 10,-41 15,-80 12,-85 -4,-5 -29,-17 -56,-26 -67,-22 -66,-43 3,-110 59,-58 128,-95 175,-95 26,0 33,5 38,26 10,39 -2,197 -21,297 -10,48 -16,89 -14,91 2,2 41,7 85,11 80,7 81,7 87,-16 3,-13 25,-151 48,-306 l 43,-283 h 78 c 76,0 78,1 73,23 -8,35 -95,603 -95,621 0,10 9,16 25,16 23,0 25,3 25,50 v 50 h -78 c -68,0 -81,3 -98,22 -24,27 -171,97 -294,139 -90,31 -105,33 -260,36 -112,2 -171,0 -185,-8 z"
       id="path17"
       style="fill:#d40000;stroke-width:8.60221" />
    <path
       d="m 11996,17700 c -9,-22 -16,-56 -16,-74 v -34 l 76,-7 c 42,-4 80,-3 85,2 4,4 11,38 15,74 l 6,66 -38,6 c -22,4 -55,7 -75,7 -34,0 -38,-4 -53,-40 z"
       id="path19"
       style="fill:#d40000;stroke-width:8.60221" />
    <path
       d="m 7436,17635 c -9,-14 -23,-36 -32,-50 l -16,-24 183,-92 c 170,-85 182,-92 164,-106 -11,-7 -31,-16 -45,-19 -48,-11 -50,-13 -50,-58 0,-46 10,-56 54,-56 28,0 68,-38 90,-85 9,-18 34,-102 55,-187 39,-150 65,-235 92,-292 13,-27 16,-28 66,-24 30,3 58,9 64,15 7,7 -14,106 -70,320 -45,170 -81,312 -81,316 0,4 11,7 26,7 24,0 25,2 22,48 l -3,47 -54,3 c -51,3 -65,10 -242,133 -103,71 -192,129 -197,129 -5,0 -17,-11 -26,-25 z"
       id="path21"
       style="fill:#d40000;stroke-width:8.60221" />
    <path
       d="m 11220,17507 v -54 l 138,-28 c 75,-15 141,-31 145,-35 7,-7 -14,-145 -29,-189 -3,-10 -23,3 -64,44 -37,36 -56,63 -53,73 5,10 1,13 -13,9 -10,-4 -41,-11 -67,-18 -34,-8 -47,-16 -43,-26 3,-7 54,-128 112,-268 119,-283 107,-269 195,-237 l 47,17 -63,131 -62,130 75,44 c 42,24 77,40 79,34 2,-5 12,-24 23,-42 23,-37 54,-52 111,-52 48,0 48,-1 14,-152 -14,-61 -25,-125 -25,-143 0,-73 80,-115 116,-60 9,14 27,76 40,138 12,62 34,157 47,212 14,55 29,127 32,160 9,74 17,85 66,85 h 39 v 53 53 l -417,87 c -230,48 -424,87 -430,87 -9,0 -13,-17 -13,-53 z m 632,-236 c -4,-82 -18,-128 -40,-135 -9,-3 -42,1 -72,9 -30,8 -67,15 -82,15 -19,0 -28,5 -28,16 0,18 20,154 24,169 2,7 37,7 103,1 l 99,-9 z"
       id="path23"
       style="fill:#d40000;stroke-width:8.60221" />
    <path
       d="m 12163,17290 c -12,-61 -24,-52 152,-110 72,-24 131,-44 132,-45 8,-6 -76,-190 -88,-192 -8,-2 -30,25 -54,68 l -39,70 -41,-3 -40,-3 1,-85 c 0,-77 6,-101 62,-264 34,-98 62,-190 62,-204 0,-23 3,-24 38,-18 20,3 56,11 79,18 l 42,13 -64,145 -64,145 71,7 c 42,5 78,14 89,24 17,15 18,13 30,-26 14,-47 41,-70 81,-70 19,0 27,6 30,21 3,20 4,20 27,-5 l 24,-26 h -28 -28 l 6,-59 c 6,-76 35,-138 89,-197 67,-74 121,-94 251,-94 59,0 107,-3 107,-7 0,-3 -16,-34 -35,-69 -22,-39 -35,-76 -35,-99 0,-32 4,-38 35,-51 19,-7 48,-14 64,-14 28,0 34,9 168,275 l 138,275 30,-6 c 17,-3 34,-7 39,-8 5,0 15,18 22,41 9,32 10,44 1,51 -13,11 -254,132 -261,132 -3,0 -19,-21 -37,-46 -35,-52 -32,-58 34,-69 37,-7 38,-8 32,-38 -12,-60 -65,-156 -107,-191 -22,-20 -63,-43 -89,-51 -67,-22 -185,-23 -227,-1 -31,16 -72,68 -72,92 0,7 34,13 88,17 120,8 184,34 210,84 7,12 12,64 12,119 0,86 -3,102 -25,141 -17,29 -43,53 -78,73 -45,26 -62,30 -125,30 -68,0 -76,-2 -103,-29 -27,-28 -29,-34 -29,-113 0,-76 2,-87 24,-107 13,-12 42,-25 64,-28 40,-5 41,-5 47,30 5,25 2,42 -10,61 -16,24 -16,28 -1,51 23,35 70,34 93,-2 25,-38 24,-114 -3,-150 -34,-45 -79,-57 -162,-43 -65,11 -70,13 -75,40 -8,38 -54,68 -124,82 -32,7 -59,13 -61,14 -2,1 9,43 24,93 l 28,91 55,-3 56,-2 3,50 3,50 -253,84 c -139,46 -258,86 -264,88 -7,2 -15,-17 -21,-47 z"
       id="path25"
       style="fill:#d40000;stroke-width:8.60221" />
    <path
       d="m 7540,17313 c -192,-66 -535,-202 -678,-269 l -103,-47 3,-36 c 3,-32 7,-36 33,-39 18,-2 87,18 182,54 84,31 155,55 157,53 2,-2 6,-13 10,-25 6,-19 -3,-25 -71,-54 -89,-39 -158,-82 -167,-105 -11,-30 -6,-80 10,-104 20,-29 102,-81 126,-81 15,0 18,-9 18,-63 0,-53 4,-67 23,-85 23,-22 155,-72 189,-72 10,0 87,52 171,115 l 152,114 19,-57 c 10,-31 20,-58 20,-59 6,-7 129,23 132,32 3,6 -45,145 -106,308 -60,164 -110,300 -110,302 0,1 14,8 31,14 21,7 29,16 26,25 -3,8 -9,31 -13,50 -6,36 -18,42 -54,29 z m -67,-332 c 67,-181 68,-164 -16,-278 -55,-74 -118,-115 -180,-115 -58,-1 -67,6 -67,52 0,46 32,77 92,86 43,7 44,10 21,59 -20,42 -30,43 -117,10 -77,-29 -141,-33 -150,-9 -4,12 23,29 119,74 69,32 125,63 125,68 0,6 -7,44 -16,87 -9,42 -14,78 -12,79 3,3 125,42 138,45 3,0 31,-71 63,-158 z"
       id="path27"
       style="fill:#d40000;stroke-width:8.60221" />
    <path
       d="m 6156,17079 c -9,-13 -16,-29 -16,-35 0,-6 78,-44 173,-83 94,-40 176,-76 181,-81 5,-5 -14,-20 -41,-33 -63,-32 -75,-48 -71,-89 l 3,-33 65,2 66,2 143,-279 c 78,-154 146,-280 150,-280 15,0 111,82 110,93 0,7 -62,131 -138,277 l -138,265 33,18 c 19,9 34,19 34,22 0,2 -10,25 -22,50 -22,44 -23,45 -70,45 -59,0 -102,17 -242,93 -130,72 -193,85 -220,46 z"
       id="path29"
       style="fill:#d40000;stroke-width:8.60221" />
    <path
       d="m 5792,16874 c -13,-26 -20,-50 -15,-54 4,-4 90,-36 191,-70 l 183,-63 -28,-17 c -16,-9 -112,-63 -215,-119 -104,-57 -188,-107 -188,-112 0,-13 39,-89 46,-89 2,0 22,9 44,20 22,11 41,20 44,20 3,0 26,-40 51,-89 57,-110 119,-173 196,-195 29,-9 61,-16 71,-16 10,0 18,-2 18,-5 0,-3 -25,-39 -55,-80 -30,-40 -55,-79 -55,-84 0,-16 55,-41 88,-41 36,0 47,13 107,120 62,112 105,180 114,180 4,0 25,-36 46,-81 22,-44 43,-83 46,-85 5,-3 128,42 136,50 2,1 -67,135 -152,296 -85,161 -154,294 -152,295 1,0 15,6 30,13 l 28,12 -22,40 c -21,37 -26,40 -64,40 -59,0 -130,23 -278,92 -71,33 -144,62 -161,65 -29,4 -33,2 -54,-43 z m 453,-426 c 68,-130 61,-200 -21,-234 -31,-13 -39,-13 -69,2 -40,19 -115,123 -144,200 l -20,51 92,52 c 107,59 92,65 162,-71 z"
       id="path31"
       style="fill:#d40000;stroke-width:8.60221" />
    <path
       d="m 13525,16714 c -19,-50 -21,-45 37,-81 39,-24 35,-32 -143,-359 -106,-193 -117,-230 -77,-258 12,-9 41,-16 64,-16 h 42 l 138,266 c 151,289 134,269 204,248 11,-3 23,10 38,41 l 21,44 -42,24 c -60,35 -256,137 -260,137 -2,0 -12,-21 -22,-46 z"
       id="path33"
       style="fill:#d40000;stroke-width:8.60221" />
    <path
       d="m 9600,16634 c -249,-20 -329,-29 -485,-50 -1147,-153 -2253,-617 -3170,-1329 -426,-330 -870,-774 -1200,-1200 -712,-917 -1176,-2023 -1329,-3170 -46,-340 -51,-429 -51,-895 0,-476 8,-590 61,-955 422,-2890 2719,-5187 5609,-5609 369,-54 478,-61 965,-61 487,0 596,7 965,61 2474,361 4549,2104 5344,4489 151,454 250,920 308,1460 13,126 17,254 18,605 0,455 -6,565 -46,875 -356,2744 -2421,5011 -5123,5625 -270,61 -511,101 -836,136 -136,15 -905,28 -1030,18 z m 860,-84 c 445,-22 915,-110 1448,-271 342,-104 640,-222 947,-376 491,-247 866,-483 1230,-777 317,-256 761,-700 1036,-1036 382,-467 747,-1092 974,-1665 221,-561 384,-1192 440,-1710 21,-190 31,-855 17,-1145 -25,-508 -126,-1022 -314,-1598 -109,-336 -193,-542 -330,-816 -703,-1404 -1656,-2359 -3057,-3061 -708,-355 -1642,-608 -2386,-645 -249,-13 -768,-13 -970,0 -259,17 -618,73 -960,151 -228,52 -879,267 -1134,376 -352,149 -853,432 -1186,668 -509,362 -1086,926 -1477,1447 -299,397 -600,921 -791,1378 -219,524 -404,1199 -472,1720 -47,359 -47,1244 0,1605 66,512 230,1133 434,1644 222,555 586,1176 965,1646 253,314 672,734 1017,1022 444,370 1088,750 1649,973 693,276 1443,456 1970,473 223,7 776,6 950,-3 z"
       id="path35"
       style="fill:#d40000;stroke-width:8.60221" />
    <path
       d="m 9656,16085 c -307,-17 -400,-26 -407,-36 -14,-22 -55,-154 -89,-286 -18,-66 -40,-135 -51,-152 -27,-45 -86,-70 -207,-87 -129,-18 -100,-10 -564,-145 -207,-60 -385,-109 -395,-109 -10,0 -79,55 -153,121 -184,166 -194,172 -272,167 -72,-5 -159,-41 -363,-151 -268,-145 -646,-384 -732,-463 l -43,-39 20,-270 19,-270 -28,-35 c -15,-19 -84,-84 -152,-144 -247,-216 -292,-261 -433,-424 -193,-225 -241,-272 -279,-272 -16,0 -138,14 -270,30 -132,17 -241,29 -242,28 -9,-9 -246,-405 -353,-588 -176,-302 -282,-511 -282,-553 0,-43 10,-56 187,-243 82,-87 143,-160 143,-171 0,-10 -54,-210 -120,-443 -78,-274 -129,-475 -145,-567 -26,-156 -54,-234 -94,-262 -14,-10 -101,-46 -193,-79 -92,-34 -184,-70 -205,-81 l -39,-19 -23,-219 c -22,-208 -23,-232 -12,-479 11,-264 33,-493 52,-552 18,-56 114,-113 265,-156 49,-15 118,-29 154,-32 l 65,-6 37,-152 c 65,-265 216,-799 253,-894 59,-154 58,-158 -124,-455 -95,-154 -103,-171 -98,-207 11,-86 178,-388 392,-710 154,-230 252,-354 286,-358 13,-1 122,19 242,46 l 217,49 83,-76 c 45,-42 154,-150 242,-240 88,-90 264,-256 390,-368 127,-113 232,-211 233,-219 2,-9 -30,-77 -71,-152 -135,-248 -139,-262 -89,-309 183,-171 868,-579 993,-591 60,-6 82,6 311,170 l 168,119 127,-47 c 278,-100 779,-230 933,-241 l 75,-6 24,-75 c 35,-109 145,-325 188,-370 46,-48 69,-55 273,-82 203,-27 541,-37 731,-21 163,14 301,36 338,54 20,9 50,60 123,205 54,107 105,215 115,241 l 17,48 110,6 c 151,7 504,77 611,122 44,18 154,67 244,109 90,42 170,76 178,76 22,0 82,-34 255,-144 197,-125 237,-146 280,-146 57,0 545,250 698,358 36,25 135,100 220,167 85,67 170,131 188,144 17,12 32,27 32,32 0,6 -39,75 -86,155 l -86,144 90,98 c 49,53 253,259 452,456 l 363,358 46,-5 c 25,-3 105,-22 176,-42 72,-20 160,-39 196,-42 l 65,-5 46,53 c 64,76 173,232 378,539 265,397 380,577 380,592 0,7 -57,76 -126,153 -170,189 -244,282 -244,308 0,12 42,153 94,313 139,430 234,788 236,889 1,28 18,41 251,194 175,115 247,167 240,175 -6,7 -4,72 5,176 7,91 14,230 14,308 0,127 -31,638 -45,749 l -6,41 -92,40 c -51,23 -141,59 -200,81 -202,76 -234,103 -257,216 -40,197 -137,565 -190,715 -40,115 -63,197 -67,240 l -6,66 65,84 c 35,47 88,117 118,155 112,146 115,192 24,373 -110,218 -434,739 -553,890 -41,52 -42,52 -99,52 -31,0 -102,-11 -157,-25 -55,-13 -143,-27 -197,-31 l -97,-7 -69,64 c -37,35 -185,173 -328,305 -142,133 -310,286 -371,340 -73,64 -113,106 -113,119 0,11 9,134 21,273 21,248 22,253 3,273 -10,12 -82,63 -159,114 -302,200 -839,484 -933,493 -64,6 -78,-2 -262,-148 -84,-66 -164,-127 -179,-134 -54,-27 -192,2 -580,123 -194,60 -268,76 -416,91 -132,13 -164,22 -198,58 -14,15 -70,115 -124,223 -55,108 -109,209 -121,226 l -21,29 -158,12 c -197,15 -219,15 -707,-13 z m 773,-1091 c 933,-96 1853,-524 2686,-1248 883,-769 1642,-2000 1854,-3012 59,-280 65,-356 65,-849 -1,-463 -9,-615 -45,-870 -71,-493 -226,-969 -479,-1475 -118,-235 -240,-412 -474,-685 -142,-165 -479,-506 -621,-627 -138,-117 -248,-199 -256,-190 -4,4 -184,302 -401,663 l -394,656 264,253 c 145,139 274,269 286,289 13,20 87,134 165,254 163,249 210,333 280,505 97,238 165,472 206,716 42,252 50,370 50,766 0,345 -2,386 -23,505 -91,521 -301,1010 -660,1535 -181,265 -299,402 -533,617 -196,180 -293,256 -498,390 -280,184 -329,210 -581,313 -132,54 -265,110 -296,124 -31,14 -71,26 -89,26 -17,0 -103,19 -191,43 l -159,42 h -575 c -512,0 -585,-2 -670,-18 -348,-66 -708,-198 -1037,-381 -309,-172 -521,-326 -737,-536 -575,-560 -890,-1131 -971,-1760 -13,-99 -16,-187 -13,-420 4,-268 7,-307 31,-430 69,-353 195,-733 333,-1001 79,-154 313,-494 496,-722 120,-150 320,-346 390,-382 32,-17 57,-33 55,-36 -42,-97 -1013,-1959 -1021,-1959 -21,0 -229,192 -457,419 -235,236 -263,271 -546,676 -325,465 -485,785 -668,1340 -108,327 -184,641 -217,905 -18,141 -17,928 0,1090 50,452 163,850 432,1520 86,215 140,324 247,503 294,489 862,1111 1348,1477 349,262 820,518 1240,675 458,171 970,290 1355,315 172,12 654,2 829,-16 z m -217,-1424 c 416,-20 753,-98 1109,-254 462,-204 956,-597 1312,-1046 413,-520 706,-1143 782,-1664 38,-262 28,-878 -19,-1157 -85,-503 -268,-941 -548,-1312 -161,-214 -443,-522 -535,-586 l -32,-21 -375,625 -376,626 51,84 c 132,220 243,537 298,855 32,179 41,304 41,542 0,182 -4,237 -21,321 -54,267 -195,578 -382,842 -267,375 -714,658 -1161,735 -153,26 -559,29 -725,4 -206,-30 -388,-84 -569,-170 -155,-73 -271,-151 -376,-253 -284,-275 -475,-596 -531,-894 -23,-124 -21,-543 4,-662 29,-138 74,-249 167,-412 102,-176 116,-196 212,-291 52,-52 72,-79 67,-90 -6,-17 -532,-1019 -590,-1125 l -32,-58 -77,61 c -134,109 -384,359 -464,466 -395,527 -664,1234 -690,1817 -20,438 53,784 253,1192 161,330 354,594 641,877 389,383 837,658 1339,822 356,116 703,152 1227,126 z m 53,-1571 c 457,-68 889,-355 1176,-783 317,-471 387,-968 229,-1613 -54,-219 -205,-622 -235,-627 -15,-2 -156,216 -269,414 -55,96 -151,262 -214,368 -62,106 -127,222 -143,257 -29,60 -30,67 -20,121 16,85 14,260 -4,329 -49,190 -212,409 -418,562 -71,52 -242,139 -293,149 l -34,6 v 68 c 0,112 -76,340 -162,484 -72,122 -173,213 -153,139 31,-116 20,-241 -42,-485 -43,-170 -49,-188 -68,-188 -33,0 -151,-43 -235,-85 -155,-78 -340,-216 -340,-254 0,-9 27,-43 59,-75 l 59,-59 102,82 c 108,87 174,125 234,136 37,7 38,7 31,-16 -4,-13 -24,-62 -44,-109 l -36,-85 -3,-217 c -3,-207 -2,-223 22,-317 41,-157 65,-141 -211,-142 -131,0 -256,-3 -278,-7 l -40,-7 -111,-218 c -61,-120 -115,-222 -121,-228 -14,-14 -106,83 -169,177 -95,143 -176,341 -209,516 -20,108 -20,308 1,440 104,654 604,1131 1314,1254 184,32 457,37 625,13 z m -370,-612 c 45,-140 60,-416 30,-532 -36,-137 -246,-658 -280,-694 -11,-11 -17,-7 -38,25 -46,70 -60,144 -60,314 -1,212 8,246 158,575 75,165 120,293 131,379 7,45 8,47 21,30 7,-10 25,-54 38,-97 z m 280,-447 c 149,-85 332,-285 407,-446 32,-68 33,-72 36,-239 l 4,-170 -418,3 c -231,2 -420,5 -422,7 -2,2 62,204 143,449 l 146,445 27,-10 c 15,-6 50,-23 77,-39 z m 865,-1616 c 157,-284 286,-520 288,-524 2,-4 -30,-56 -69,-116 -83,-123 -257,-305 -384,-401 -365,-275 -784,-445 -1240,-504 -142,-18 -560,-15 -680,5 -133,22 -267,59 -387,107 -123,49 -400,187 -396,197 6,16 591,1157 594,1161 2,2 62,-33 133,-78 155,-97 245,-141 366,-177 79,-24 112,-27 267,-32 193,-5 274,6 418,55 295,101 580,335 702,578 32,62 68,178 68,216 0,21 5,29 18,29 12,-1 96,-143 302,-516 z m -1922,327 c 56,-32 148,-76 204,-99 162,-64 220,-72 511,-72 240,0 257,1 323,24 98,33 167,69 233,118 56,43 64,51 81,78 4,8 12,12 15,8 4,-4 -6,-24 -22,-45 -16,-21 -58,-80 -93,-131 -85,-126 -167,-199 -299,-266 -209,-106 -329,-132 -555,-121 -147,7 -255,29 -328,66 -24,12 -92,55 -152,96 -60,41 -124,80 -142,88 -19,8 -34,16 -34,19 0,12 145,296 151,296 3,0 52,-26 107,-59 z m 2382,-1153 c 35,-62 323,-567 640,-1123 962,-1685 1190,-2094 1190,-2139 0,-32 -137,-129 -365,-258 -162,-92 -455,-248 -466,-248 -3,0 -91,59 -195,131 -196,135 -270,179 -303,179 -11,0 -154,-57 -318,-126 -207,-87 -333,-134 -413,-154 -166,-41 -479,-99 -610,-112 -22,-3 -35,-27 -126,-243 l -102,-240 -159,-22 c -87,-12 -187,-22 -223,-22 -63,-1 -563,36 -606,44 -16,4 -45,56 -130,239 l -109,235 -55,6 c -187,20 -325,56 -763,201 -358,119 -487,153 -570,154 -46,0 -52,-3 -145,-86 -181,-161 -246,-204 -310,-204 -47,0 -170,58 -279,131 -85,57 -433,317 -433,323 0,3 1421,2741 1425,2744 7,8 81,-21 275,-108 275,-123 401,-167 540,-189 36,-6 219,-11 407,-11 383,0 469,8 700,65 310,76 512,159 757,312 226,142 274,184 518,456 88,97 161,177 163,177 1,0 31,-51 65,-112 z"
       id="path37"
       style="fill:#d40000;stroke-width:8.60221" />
    <path
       d="m 10060,7104 c -119,-40 -189,-58 -252,-64 -103,-9 -125,-22 -204,-118 -94,-115 -193,-332 -228,-506 -44,-209 4,-438 110,-536 l 44,-40 h 102 c 120,0 165,16 216,74 29,33 32,43 32,101 0,36 -7,82 -16,105 -14,35 -20,40 -49,40 -21,0 -45,-9 -64,-26 -26,-21 -31,-33 -31,-69 0,-72 -13,-95 -56,-95 -46,0 -90,42 -100,95 -18,96 47,293 114,345 37,30 78,26 96,-8 28,-53 39,-56 92,-23 l 49,30 15,-42 c 11,-31 22,-43 39,-45 85,-12 110,40 111,226 v 132 h -26 c -43,0 -63,-18 -70,-61 -6,-36 -41,-96 -50,-86 -3,2 16,67 41,144 25,77 45,146 45,152 0,7 -23,11 -63,11 -52,0 -69,-5 -97,-25 -19,-14 -45,-25 -59,-25 h -24 l 23,25 c 43,46 123,78 200,79 38,0 74,-4 80,-10 6,-6 13,-35 17,-65 3,-30 15,-66 26,-81 19,-26 19,-29 1,-232 l -18,-206 37,-38 c 44,-45 46,-60 10,-64 -26,-3 -28,-7 -31,-51 -4,-61 15,-93 71,-117 73,-32 112,-35 137,-10 20,20 22,30 19,138 -1,65 1,266 6,447 7,301 7,331 -8,344 -21,17 -22,64 -2,81 22,19 19,86 -5,110 -33,33 -96,25 -280,-36 z"
       id="path39"
       style="fill:#d40000;stroke-width:8.60221" />
    <path
       d="m 10430,6940 c -18,-18 -20,-33 -20,-172 1,-84 -4,-207 -11,-273 -6,-66 -12,-208 -13,-315 -1,-191 0,-196 24,-239 14,-24 34,-50 46,-57 20,-14 20,-13 37,269 17,272 23,759 11,791 -9,22 -50,20 -74,-4 z"
       id="path41"
       style="fill:#d40000;stroke-width:8.60221" />
    <path
       d="m 8126,6700 c -128,-27 -141,-34 -184,-104 -22,-33 -70,-104 -107,-156 -79,-111 -115,-179 -115,-215 0,-19 14,-38 48,-68 86,-76 167,-163 197,-213 23,-37 43,-56 85,-77 30,-15 61,-35 68,-44 17,-23 15,-63 -3,-63 -7,0 -37,-5 -65,-11 -49,-10 -50,-11 -50,-48 0,-71 29,-132 96,-198 l 62,-63 h 109 108 l 34,-49 c 33,-49 55,-57 65,-23 2,10 7,62 11,117 3,55 8,116 11,136 l 5,37 97,4 c 80,3 108,9 160,33 66,30 82,47 82,89 0,32 -34,54 -138,92 l -73,27 35,36 c 32,33 36,43 36,88 0,45 3,52 23,57 13,3 36,17 50,30 25,24 27,30 27,114 0,82 -3,94 -38,168 -21,43 -44,101 -51,129 -17,68 -25,75 -88,75 -52,0 -59,3 -113,50 -31,27 -69,54 -84,60 -42,16 -202,11 -300,-10 z m -59,-161 c -11,-93 -71,-165 -121,-146 -25,10 -21,77 8,116 28,38 84,81 104,81 12,0 14,-10 9,-51 z m 157,-41 c 3,-7 7,-28 10,-45 5,-28 3,-33 -15,-33 -29,0 -77,-27 -89,-51 -17,-30 -54,-22 -58,14 -4,31 28,89 61,112 26,18 86,20 91,3 z m 486,-145 c 28,-65 54,-124 57,-130 9,-21 -41,-15 -77,10 -47,31 -71,77 -77,146 -7,70 -1,91 26,91 14,0 30,-27 71,-117 z m -756,-84 c 26,-12 28,-16 22,-57 -8,-56 -12,-62 -45,-62 -59,0 -135,80 -118,124 11,27 78,25 141,-5 z m 666,-141 c 0,-77 -13,-104 -65,-139 -51,-35 -207,-87 -285,-96 -59,-6 -60,-5 -60,19 0,47 35,76 123,103 95,29 137,52 163,91 37,54 72,84 98,84 25,0 26,-2 26,-62 z"
       id="path43"
       style="fill:#d40000;stroke-width:8.60221" />
    <path
       d="m 11647,6585 c -23,-21 -39,-25 -87,-25 -70,0 -161,-31 -207,-70 l -31,-28 -69,13 c -40,8 -72,10 -77,4 -6,-5 -10,-53 -10,-107 -1,-109 -7,-94 88,-207 53,-62 53,-104 2,-151 -48,-44 -49,-80 -2,-99 38,-16 243,-55 290,-55 31,0 32,-2 81,-135 47,-126 52,-135 76,-135 29,0 29,-1 45,177 l 6,72 67,44 c 98,65 103,67 193,67 105,0 128,13 128,72 0,33 -6,46 -35,72 -43,40 -44,59 -5,119 63,100 80,143 80,207 v 60 l -47,1 c -79,2 -98,10 -101,47 l -3,32 h -140 c -134,0 -142,1 -173,25 -18,14 -35,25 -37,25 -2,0 -17,-12 -32,-25 z m -76,-167 c 8,-19 14,-68 14,-118 0,-79 -1,-85 -21,-88 -19,-3 -23,5 -38,69 -17,74 -21,151 -9,162 16,17 42,5 54,-25 z"
       id="path45"
       style="fill:#d40000;stroke-width:8.60221" />
    <path
       d="m 13864,16524 c -6,-35 -4,-40 30,-69 21,-17 97,-67 169,-111 73,-43 149,-94 170,-113 37,-33 47,-64 26,-77 -6,-3 -18,-19 -28,-35 l -17,-28 -200,109 c -109,59 -202,106 -206,103 -16,-9 -9,-221 8,-263 19,-47 32,-50 65,-14 13,14 37,35 52,46 l 28,20 79,-48 c 44,-27 80,-53 80,-58 0,-7 -128,-225 -177,-303 -14,-20 -11,-24 38,-57 33,-22 57,-32 63,-26 6,5 87,121 181,258 l 169,249 51,-1 50,-1 3,36 c 3,34 -1,40 -55,81 -159,122 -484,323 -540,334 -30,6 -32,5 -39,-32 z"
       id="path47"
       style="fill:#d40000;stroke-width:8.60221" />
    <path
       d="m 4854,15779 c -148,-127 -273,-235 -278,-240 -10,-9 49,-79 66,-79 5,0 42,25 82,55 40,30 78,55 85,55 18,0 73,-29 99,-53 35,-32 30,-85 -13,-141 -40,-52 -42,-66 -17,-88 43,-38 80,-48 182,-48 81,0 108,4 140,20 52,26 108,84 130,132 l 17,38 57,-60 58,-61 54,47 c 49,41 53,48 42,64 -7,10 -102,117 -210,238 -109,121 -198,224 -198,228 0,4 10,18 21,31 l 22,22 -27,36 c -15,19 -31,35 -35,35 -4,0 -129,-104 -277,-231 z m 271,-71 c 89,-96 135,-162 135,-194 0,-86 -94,-169 -183,-162 l -41,3 -1,114 v 113 l -55,49 -55,48 55,56 c 30,30 57,55 61,55 4,0 42,-37 84,-82 z"
       id="path49"
       style="fill:#d40000;stroke-width:8.60221" />
    <path
       d="m 15284,15790 c -12,-4 -49,-34 -82,-65 l -62,-57 -31,22 -31,22 -34,-33 c -19,-18 -34,-36 -34,-39 0,-4 15,-24 34,-46 l 34,-39 -225,-227 -225,-227 30,-38 c 16,-21 40,-47 52,-58 l 21,-19 77,79 c 304,318 377,387 392,376 33,-24 42,-23 75,9 l 34,33 -22,30 c -12,16 -26,35 -31,41 -5,8 1,28 18,55 34,53 82,75 143,66 88,-13 133,-80 203,-305 24,-74 53,-160 67,-189 26,-60 68,-121 84,-121 14,0 11,108 -7,201 -47,248 -148,441 -267,509 -45,26 -62,30 -122,29 -38,0 -79,-4 -91,-9 z"
       id="path51"
       style="fill:#d40000;stroke-width:8.60221" />
    <path
       d="m 4015,15448 c -28,-19 -62,-54 -80,-82 -26,-42 -30,-61 -33,-130 -5,-106 14,-136 115,-186 l 71,-35 -149,-178 c -109,-129 -149,-182 -145,-195 4,-10 19,-31 35,-46 l 29,-28 172,196 c 94,108 175,196 179,196 4,0 20,-13 36,-30 l 28,-30 -45,-57 c -176,-225 -168,-212 -168,-280 0,-61 1,-63 53,-117 l 52,-55 137,-12 c 91,-8 156,-9 195,-3 l 58,9 3,58 3,57 h -110 c -173,0 -261,29 -261,85 0,31 67,128 134,194 l 55,54 156,-143 156,-142 31,28 c 16,16 38,41 49,56 l 19,27 -217,187 c -120,103 -229,197 -242,210 l -24,22 23,32 23,32 -45,45 -45,45 -19,-38 c -22,-44 -51,-55 -113,-44 -58,10 -88,34 -102,80 -26,87 28,160 117,160 39,0 105,-19 187,-54 l 38,-17 -41,-46 -41,-46 33,-34 c 17,-18 36,-33 42,-33 6,0 27,17 48,37 l 38,37 82,-89 c 103,-115 248,-257 311,-306 63,-50 97,-51 131,-6 15,19 26,40 26,47 0,7 -99,113 -219,234 l -220,221 24,30 24,30 -31,32 c -38,39 -48,40 -77,9 l -22,-23 -77,30 c -69,28 -90,31 -207,35 l -130,4 z"
       id="path53"
       style="fill:#d40000;stroke-width:8.60221" />
    <path
       d="m 15287,15446 c -15,-12 -27,-25 -27,-30 0,-4 69,-80 153,-168 83,-88 154,-164 156,-170 2,-5 -9,-23 -25,-39 l -27,-28 -81,73 c -107,97 -140,116 -199,116 -60,0 -92,-16 -145,-74 -49,-53 -56,-74 -50,-164 5,-81 24,-123 99,-214 l 57,-70 -25,-61 -24,-60 51,-51 c 58,-59 59,-58 86,45 l 17,67 44,5 c 66,7 93,37 93,104 0,71 -21,93 -89,93 -31,0 -55,-6 -65,-15 -20,-20 -49,-19 -69,3 -62,69 -61,218 2,252 47,25 68,13 190,-105 65,-63 122,-115 127,-115 5,0 39,29 74,65 35,36 68,65 72,65 5,0 29,-19 53,-41 l 45,-41 36,27 36,28 -243,244 c -134,134 -255,253 -269,263 -25,18 -26,17 -53,-4 z"
       id="path55"
       style="fill:#d40000;stroke-width:8.60221" />
    <path
       d="m 15841,14836 -33,-34 187,-217 187,-216 32,24 c 17,14 30,28 29,31 -1,8 -362,446 -367,446 -1,0 -17,-15 -35,-34 z"
       id="path57"
       style="fill:#d40000;stroke-width:8.60221" />
    <path
       d="m 3713,14538 c -65,-73 -313,-442 -313,-468 0,-15 56,-50 80,-50 5,0 55,67 111,150 l 101,149 59,-40 c 64,-43 79,-63 79,-107 0,-47 -29,-64 -115,-70 l -75,-5 v -58 -59 h 153 c 136,0 269,8 425,26 57,6 60,12 45,84 l -6,33 -116,-7 c -64,-4 -138,-9 -164,-13 l -49,-6 16,31 c 17,34 22,157 7,181 -5,8 -40,33 -78,56 -87,53 -100,83 -61,137 10,14 9,21 -6,37 -25,28 -67,27 -93,-1 z"
       id="path59"
       style="fill:#d40000;stroke-width:8.60221" />
    <path
       d="m 15612,14544 c -41,-21 -77,-67 -97,-123 -22,-63 -21,-235 3,-281 16,-34 19,-35 80,-38 70,-3 71,-1 47,68 -21,60 -20,167 4,210 26,50 85,70 143,50 51,-18 80,-56 82,-106 1,-38 1,-39 -49,-49 -27,-6 -50,-15 -50,-21 1,-5 4,-33 9,-62 l 8,-54 52,9 c 84,13 163,9 184,-10 25,-23 29,-22 60,14 48,56 48,55 -32,85 l -74,28 -4,72 c -3,61 -8,79 -33,116 -17,23 -53,56 -79,73 -43,26 -60,30 -135,33 -65,2 -94,-2 -119,-14 z"
       id="path61"
       style="fill:#d40000;stroke-width:8.60221" />
    <path
       d="m 16232,14327 -42,-22 150,-233 c 82,-128 165,-257 184,-286 l 35,-54 -55,-37 c -31,-20 -59,-35 -62,-33 -4,2 -33,21 -64,43 -53,37 -57,43 -58,81 -1,94 -66,222 -140,272 -31,21 -44,23 -117,20 -73,-3 -85,-6 -119,-33 -20,-17 -51,-55 -68,-85 -28,-50 -31,-64 -35,-163 -2,-59 0,-123 3,-142 7,-35 7,-35 60,-35 h 53 l 6,111 c 8,132 24,175 76,196 27,12 47,13 80,7 57,-12 83,-45 89,-118 l 4,-55 -43,-3 -44,-3 -3,-56 -3,-56 93,-6 c 108,-7 138,-14 138,-32 0,-7 -48,-48 -107,-91 -60,-43 -132,-95 -160,-116 l -53,-38 34,-53 c 19,-28 39,-51 45,-50 6,2 123,75 260,163 137,88 257,163 266,166 10,4 26,-2 40,-16 l 24,-22 30,22 c 18,12 28,26 24,33 -3,7 -17,29 -30,49 l -23,38 46,42 c 63,59 95,72 137,54 51,-21 87,-70 87,-118 0,-52 -47,-141 -104,-197 l -43,-42 -21,50 -21,50 -43,-13 c -46,-13 -46,-12 -34,-96 l 7,-45 -276,-134 c -304,-149 -295,-141 -252,-216 36,-64 58,-61 249,38 90,47 207,109 260,140 l 97,55 12,-29 c 6,-16 15,-32 20,-35 5,-2 31,7 59,21 l 51,26 -21,34 -22,35 42,48 c 23,26 61,78 84,117 40,68 41,72 44,175 4,105 4,105 -30,155 -18,28 -55,65 -82,83 -42,28 -57,32 -113,32 -66,0 -125,-21 -153,-55 -8,-9 -16,-35 -19,-58 l -6,-41 -175,291 c -105,176 -181,292 -190,292 -8,0 -34,-10 -58,-22 z"
       id="path63"
       style="fill:#d40000;stroke-width:8.60221" />
    <path
       d="m 3280,13878 c -41,-72 -76,-137 -78,-143 -1,-6 16,-18 39,-25 l 42,-14 32,36 31,37 279,-151 c 209,-112 283,-148 295,-141 24,15 47,90 34,110 -13,21 -79,62 -322,199 -103,58 -191,109 -196,114 -6,6 -5,23 1,45 11,34 10,37 -13,45 -69,27 -63,31 -144,-112 z"
       id="path65"
       style="fill:#d40000;stroke-width:8.60221" />
    <path
       d="m 3148,13652 c -63,-82 -99,-161 -96,-206 3,-39 5,-41 39,-44 29,-2 39,2 53,22 22,35 47,33 133,-8 l 72,-35 -21,-48 c -30,-69 -56,-103 -79,-103 -11,0 -50,16 -86,35 -155,82 -283,11 -283,-159 0,-62 3,-70 30,-97 26,-26 36,-30 77,-27 l 48,3 3,42 c 3,37 0,42 -20,45 -20,3 -23,9 -23,43 0,38 2,40 31,43 20,2 58,-9 99,-27 l 67,-31 -7,-47 c -3,-27 -9,-58 -12,-70 -5,-22 -3,-23 63,-23 53,0 82,6 124,26 72,33 120,71 120,93 0,10 -20,35 -45,55 -25,21 -45,45 -45,54 0,19 46,122 55,122 3,0 58,-26 123,-59 165,-83 152,-82 201,-11 l 42,60 -284,142 -284,141 13,49 c 12,48 12,49 -12,59 -44,16 -59,10 -96,-39 z"
       id="path67"
       style="fill:#d40000;stroke-width:8.60221" />
    <path
       d="m 2632,11065 c -55,-24 -93,-56 -123,-103 -27,-42 -29,-54 -29,-139 0,-62 5,-103 14,-121 17,-31 81,-94 113,-111 32,-16 178,-14 211,3 39,20 96,84 121,133 27,55 28,152 2,208 -23,50 -84,109 -133,130 -46,19 -132,19 -176,0 z"
       id="path69"
       style="fill:#d40000;stroke-width:8.60221" />
    <path
       d="m 17499,11032 c -65,-42 -99,-110 -99,-198 0,-83 21,-133 76,-186 52,-50 100,-68 179,-68 81,0 127,21 182,84 96,109 82,253 -36,359 l -41,37 h -108 c -101,0 -111,-2 -153,-28 z"
       id="path71"
       style="fill:#d40000;stroke-width:8.60221" />
    <path
       d="m 2585,8666 -320,-62 3,-79 c 2,-44 7,-84 12,-89 5,-5 140,12 335,45 l 325,54 v 72 c 0,70 -12,124 -27,122 -5,0 -152,-29 -328,-63 z"
       id="path73"
       style="fill:#d40000;stroke-width:8.60221" />
    <path
       d="m 17066,8678 c -3,-13 -6,-50 -6,-84 v -61 l 73,-6 c 39,-3 144,-22 232,-42 95,-22 199,-39 257,-42 112,-6 107,-11 111,101 l 2,59 -305,48 c -168,27 -317,49 -331,49 -19,0 -28,-6 -33,-22 z"
       id="path75"
       style="fill:#d40000;stroke-width:8.60221" />
    <path
       d="m 2642,8325 c -178,-40 -325,-75 -326,-77 -8,-8 20,-172 30,-175 5,-2 97,19 202,46 106,27 192,48 192,46 0,-2 -63,-61 -140,-131 -176,-160 -185,-172 -177,-271 3,-42 10,-80 15,-85 10,-10 649,126 664,141 6,5 -6,125 -17,157 -2,8 -61,0 -189,-26 l -185,-37 155,160 c 148,153 155,162 149,193 -10,56 -35,134 -43,133 -4,-1 -152,-34 -330,-74 z"
       id="path77"
       style="fill:#d40000;stroke-width:8.60221" />
    <path
       d="m 17004,8375 c -9,-14 -19,-54 -21,-89 l -6,-63 59,-8 c 33,-4 71,-13 86,-21 15,-8 36,-14 47,-14 11,0 22,-4 25,-8 4,-7 -33,-201 -40,-210 -1,-2 -48,6 -105,17 -56,12 -109,21 -119,21 -13,0 -21,-19 -35,-85 -10,-47 -16,-88 -13,-90 6,-6 643,-145 663,-145 16,0 25,40 28,115 l 2,49 -125,40 -125,41 6,73 c 10,132 47,152 199,107 50,-15 95,-25 102,-23 10,4 47,132 48,169 0,13 -15,17 -68,22 -37,4 -126,23 -197,43 -351,98 -383,102 -411,59 z"
       id="path79"
       style="fill:#d40000;stroke-width:8.60221" />
    <path
       d="m 2840,7615 c -274,-98 -315,-116 -318,-135 -7,-42 30,-172 73,-258 49,-98 113,-169 178,-201 58,-28 153,-28 235,0 82,28 196,111 240,174 34,49 34,51 29,130 -4,61 -18,117 -59,237 -30,87 -56,160 -59,162 -2,2 -146,-47 -319,-109 z m 253,-168 c 56,-138 -45,-254 -226,-260 -49,-1 -61,2 -83,24 -21,22 -80,156 -72,164 5,4 342,113 353,114 6,1 18,-18 28,-42 z"
       id="path81"
       style="fill:#d40000;stroke-width:8.60221" />
    <path
       d="m 17357,7573 c -2,-5 -21,-62 -41,-128 -21,-66 -41,-124 -46,-128 -18,-19 -85,-6 -279,57 -113,36 -212,66 -221,66 -12,0 -21,-22 -36,-84 l -21,-84 313,-96 c 172,-53 319,-96 326,-96 9,0 37,81 84,243 l 71,242 -41,7 c -57,9 -104,9 -109,1 z"
       id="path83"
       style="fill:#d40000;stroke-width:8.60221" />
    <path
       d="m 16647,7148 c -8,-18 -53,-125 -101,-237 -66,-153 -85,-206 -75,-212 24,-14 620,-261 623,-258 1,2 50,112 109,244 l 106,240 -42,13 c -23,7 -57,14 -76,15 l -34,2 -60,-145 c -33,-80 -61,-146 -62,-147 -5,-8 -125,41 -125,51 0,6 25,70 55,141 30,70 55,134 55,140 0,15 -122,73 -127,60 -2,-5 -29,-68 -61,-140 l -57,-130 -52,9 c -29,5 -53,13 -53,18 0,5 30,79 66,164 39,89 63,159 58,164 -9,8 -109,40 -126,40 -4,0 -14,-15 -21,-32 z"
       id="path85"
       style="fill:#d40000;stroke-width:8.60221" />
    <path
       d="m 3085,6919 c -159,-70 -294,-130 -300,-132 -10,-4 31,-138 50,-163 8,-10 74,14 315,117 168,71 308,133 313,138 11,11 -57,166 -74,168 -8,0 -144,-57 -304,-128 z"
       id="path87"
       style="fill:#d40000;stroke-width:8.60221" />
    <path
       d="m 3218,6541 c -175,-21 -319,-39 -322,-42 -2,-2 10,-39 27,-81 l 30,-78 h 71 71 l 49,-97 48,-97 -47,-45 -47,-44 38,-79 c 21,-43 44,-78 50,-78 7,0 121,107 253,238 182,180 241,244 241,263 0,13 -12,59 -27,102 l -28,77 -45,-1 c -25,-1 -188,-18 -362,-38 z m 214,-168 c -17,-21 -47,-54 -66,-73 -30,-28 -40,-32 -54,-24 -16,10 -61,81 -62,96 0,9 48,19 134,28 39,4 73,8 74,9 2,0 -10,-16 -26,-36 z"
       id="path89"
       style="fill:#d40000;stroke-width:8.60221" />
    <path
       d="m 16445,6508 c -52,-19 -112,-68 -155,-127 -39,-51 -150,-259 -150,-279 0,-5 23,-19 52,-33 29,-13 149,-84 267,-156 137,-84 226,-133 243,-133 38,0 93,72 161,207 49,99 52,111 55,193 3,72 0,94 -16,127 -29,56 -120,136 -200,175 -56,28 -79,33 -147,35 -44,1 -93,-3 -110,-9 z m 180,-203 c 28,-13 68,-42 90,-65 34,-34 39,-46 38,-81 -2,-42 -47,-153 -61,-147 -67,29 -322,172 -322,182 0,6 12,36 26,65 43,86 117,101 229,46 z"
       id="path91"
       style="fill:#d40000;stroke-width:8.60221" />
    <path
       d="m 3715,6091 c -60,-38 -190,-118 -287,-178 l -176,-109 45,-78 c 29,-49 51,-75 59,-72 7,3 73,45 146,94 73,48 139,92 145,96 7,4 -22,-64 -63,-151 -124,-258 -124,-258 -54,-331 62,-65 60,-66 315,103 205,136 295,202 295,215 0,16 -72,120 -82,120 -6,0 -84,-45 -175,-100 l -165,-101 47,83 c 81,145 155,300 155,325 0,27 -70,152 -85,152 -5,1 -59,-30 -120,-68 z"
       id="path93"
       style="fill:#d40000;stroke-width:8.60221" />
    <path
       d="m 15892,5756 -62,-74 60,-110 c 79,-146 78,-142 44,-142 -16,0 -54,7 -84,15 -30,8 -79,15 -108,15 -47,0 -58,-4 -82,-30 -33,-36 -67,-117 -54,-129 5,-5 83,-14 174,-20 299,-22 266,-13 393,-108 l 112,-84 38,77 c 20,43 37,83 37,89 0,6 -15,17 -34,23 -52,19 -130,95 -180,175 -25,40 -75,137 -111,217 -36,80 -70,149 -74,153 -4,4 -35,-26 -69,-67 z"
       id="path95"
       style="fill:#d40000;stroke-width:8.60221" />
    <path
       d="m 4303,5274 c -94,-65 -168,-122 -305,-237 -93,-77 -118,-104 -118,-123 0,-36 14,-57 59,-94 l 40,-31 261,211 c 143,116 260,216 260,222 0,6 -16,31 -36,54 -47,58 -72,58 -161,-2 z"
       id="path97"
       style="fill:#d40000;stroke-width:8.60221" />
    <path
       d="m 15485,5184 c -62,-22 -137,-84 -172,-144 -32,-53 -33,-56 -33,-177 0,-111 3,-129 24,-171 41,-81 134,-155 242,-192 67,-24 188,-27 237,-7 87,37 144,129 154,248 3,38 9,69 12,69 3,-1 17,-7 31,-15 14,-8 30,-14 35,-15 9,0 70,90 63,94 -2,1 -63,53 -137,115 -129,110 -134,113 -151,95 -84,-90 -191,-216 -188,-223 4,-11 97,-91 106,-91 4,0 22,23 40,51 25,39 38,50 55,47 20,-3 22,-9 22,-58 0,-105 -66,-158 -174,-141 -134,22 -221,108 -221,218 0,88 45,132 151,148 43,6 50,12 93,71 25,35 46,68 46,73 0,23 -173,27 -235,5 z"
       id="path99"
       style="fill:#d40000;stroke-width:8.60221" />
    <path
       d="m 4425,4967 c -362,-340 -338,-315 -322,-340 8,-12 35,-44 59,-71 l 44,-49 142,138 c 78,75 142,132 142,125 0,-7 -25,-86 -55,-175 -42,-124 -55,-177 -55,-221 0,-58 0,-59 56,-111 31,-29 60,-53 65,-53 5,0 117,107 250,238 l 241,237 -59,64 -59,65 -115,-110 c -191,-182 -179,-188 -99,52 l 70,208 -63,64 c -34,35 -69,67 -77,72 -11,6 -53,-27 -165,-133 z"
       id="path101"
       style="fill:#d40000;stroke-width:8.60221" />
    <path
       d="m 14960,4631 c -89,-29 -164,-94 -202,-176 -19,-42 -23,-67 -23,-151 0,-99 1,-104 40,-180 69,-135 181,-204 331,-204 62,0 85,5 132,28 68,33 151,113 180,174 30,61 31,194 2,270 -27,71 -94,155 -164,203 l -58,40 -107,2 c -58,1 -117,-1 -131,-6 z m 152,-178 c 43,-21 99,-74 130,-122 70,-112 10,-241 -113,-241 -53,0 -97,27 -167,104 -83,90 -93,153 -34,217 60,67 112,79 184,42 z"
       id="path103"
       style="fill:#d40000;stroke-width:8.60221" />
    <path
       d="m 4968,4499 c -62,-32 -70,-53 -66,-172 l 3,-103 63,-99 c 51,-81 62,-107 60,-135 -2,-27 -8,-36 -25,-38 -27,-4 -72,19 -118,59 -38,33 -45,71 -25,125 10,25 7,31 -37,76 -26,26 -55,48 -65,48 -11,0 -31,-19 -48,-47 -59,-92 -34,-191 75,-298 76,-75 140,-108 222,-113 53,-4 69,-1 107,22 74,43 86,66 86,163 0,93 -8,115 -86,231 -37,56 -44,74 -42,107 3,38 5,40 38,43 26,2 45,-4 72,-25 35,-26 37,-31 38,-85 0,-55 1,-58 53,-107 28,-28 58,-51 64,-51 44,-1 59,170 22,247 -24,50 -102,123 -162,152 -59,29 -176,29 -229,0 z"
       id="path105"
       style="fill:#d40000;stroke-width:8.60221" />
    <path
       d="m 5472,4167 -42,-43 70,-69 c 39,-38 70,-73 70,-76 0,-4 -67,-100 -150,-214 -82,-113 -150,-210 -150,-214 0,-4 32,-30 70,-56 61,-42 72,-47 84,-34 7,8 82,103 166,212 146,190 153,197 174,184 62,-41 124,-77 132,-77 10,0 79,108 73,114 -13,10 -450,316 -452,316 -2,0 -22,-19 -45,-43 z"
       id="path107"
       style="fill:#d40000;stroke-width:8.60221" />
    <path
       d="m 14253,4038 c -51,-40 -61,-53 -53,-66 21,-37 396,-516 406,-519 10,-3 384,303 398,325 2,4 -16,32 -42,60 l -47,53 -60,-48 c -33,-27 -90,-72 -126,-100 l -66,-52 -161,188 c -89,104 -168,193 -175,199 -9,7 -29,-3 -74,-40 z"
       id="path109"
       style="fill:#d40000;stroke-width:8.60221" />
    <path
       d="m 5915,3633 c -232,-364 -237,-374 -191,-410 37,-30 106,-57 116,-47 5,5 90,135 190,289 l 181,280 -78,38 c -42,20 -82,37 -88,37 -6,0 -64,-84 -130,-187 z"
       id="path111"
       style="fill:#d40000;stroke-width:8.60221" />
    <path
       d="m 13850,3789 c -68,-37 -144,-111 -170,-165 -16,-32 -20,-61 -20,-141 0,-92 2,-105 32,-163 37,-74 124,-166 189,-197 126,-62 349,7 443,135 30,42 31,48 34,159 4,112 3,116 -28,180 -38,77 -125,168 -191,201 -38,18 -63,22 -140,22 -86,0 -99,-3 -149,-31 z m 216,-164 c 67,-39 124,-138 124,-217 0,-86 -78,-156 -158,-142 -88,16 -147,69 -183,165 -28,73 -25,130 8,170 53,63 126,71 209,24 z"
       id="path113"
       style="fill:#d40000;stroke-width:8.60221" />
    <path
       d="m 6250,3618 c -16,-22 -30,-46 -30,-52 0,-6 36,-30 80,-54 44,-24 80,-45 80,-47 0,-3 -58,-110 -130,-238 -71,-129 -130,-238 -130,-243 0,-5 32,-26 70,-46 l 69,-38 54,93 c 30,50 89,153 132,227 43,74 79,137 81,138 1,2 42,-15 90,-37 48,-23 93,-41 101,-41 16,0 43,58 43,93 0,19 -22,38 -107,94 -143,94 -322,193 -350,193 -15,0 -33,-14 -53,-42 z"
       id="path115"
       style="fill:#d40000;stroke-width:8.60221" />
    <path
       d="m 13398,3498 c -43,-17 -78,-35 -78,-41 0,-5 41,-88 91,-183 50,-96 87,-174 82,-174 -4,0 -85,54 -180,120 -192,133 -201,137 -283,95 -27,-14 -55,-25 -62,-25 -45,-1 -40,-16 114,-324 115,-230 157,-306 171,-306 24,0 87,27 109,47 10,9 18,30 18,48 0,30 -53,143 -130,279 l -33,58 39,-24 c 21,-14 113,-73 203,-132 l 164,-106 41,24 c 23,13 60,33 84,45 l 42,22 -144,287 c -80,158 -151,294 -158,304 -12,15 -19,14 -90,-14 z"
       id="path117"
       style="fill:#d40000;stroke-width:8.60221" />
    <path
       d="m 6796,3318 c -86,-146 -176,-393 -176,-480 0,-69 36,-128 109,-182 69,-51 138,-76 210,-76 50,0 66,5 107,33 63,42 134,131 188,237 45,88 106,248 106,279 0,14 -19,25 -72,45 -40,14 -78,26 -83,26 -6,0 -21,-30 -34,-67 -37,-104 -135,-293 -177,-342 -36,-41 -39,-43 -82,-38 -54,6 -96,35 -100,69 -4,31 43,155 127,335 33,72 61,136 61,142 0,14 -100,61 -132,61 -21,0 -32,-9 -52,-42 z"
       id="path119"
       style="fill:#d40000;stroke-width:8.60221" />
    <path
       d="m 12688,3182 c -16,-10 -28,-22 -28,-28 0,-5 16,-57 35,-114 19,-57 32,-107 28,-111 -5,-4 -50,-24 -102,-44 -66,-25 -97,-32 -101,-24 -4,6 -22,54 -40,106 l -33,95 -35,-6 c -57,-9 -127,-48 -130,-73 -2,-17 219,-595 234,-612 6,-7 166,43 170,54 2,5 -18,66 -45,135 -27,69 -46,128 -43,132 14,15 196,78 203,71 3,-4 25,-60 48,-123 23,-63 46,-118 50,-123 4,-4 42,7 84,24 91,37 91,36 46,171 -58,174 -154,387 -206,456 -21,28 -30,32 -66,31 -23,0 -54,-8 -69,-17 z"
       id="path121"
       style="fill:#d40000;stroke-width:8.60221" />
    <path
       d="m 7370,3054 c -12,-36 -18,-69 -14,-73 5,-4 46,-16 92,-26 45,-10 82,-21 82,-24 0,-3 -38,-115 -85,-249 -78,-225 -92,-272 -81,-272 3,0 40,-13 84,-29 l 79,-29 88,251 c 48,139 89,253 90,255 2,2 40,-6 85,-18 45,-12 90,-20 99,-18 11,2 19,21 26,63 l 11,60 -254,88 c -140,48 -260,87 -267,87 -8,0 -23,-29 -35,-66 z"
       id="path123"
       style="fill:#d40000;stroke-width:8.60221" />
    <path
       d="m 7981,2878 c -52,-197 -141,-566 -141,-588 0,-23 7,-31 48,-48 89,-38 358,-102 427,-102 36,0 45,15 45,82 0,32 -5,40 -31,54 -39,20 -212,64 -251,64 h -30 l 7,63 c 4,34 9,63 10,65 2,2 72,-10 156,-27 84,-17 156,-28 159,-24 11,13 30,137 22,144 -4,3 -72,19 -150,34 l -144,28 6,30 c 3,16 6,35 6,41 1,34 16,36 101,11 103,-31 222,-43 244,-25 10,8 15,31 15,69 v 57 l -237,57 c -131,32 -241,57 -244,57 -4,0 -12,-19 -18,-42 z"
       id="path125"
       style="fill:#d40000;stroke-width:8.60221" />
    <path
       d="m 11850,2901 c -65,-27 -125,-83 -157,-149 -26,-52 -28,-66 -28,-172 0,-103 3,-121 26,-171 34,-73 85,-128 146,-159 42,-22 64,-25 168,-28 111,-3 124,-1 165,21 83,44 150,162 150,264 0,42 -2,45 -23,39 -13,-3 -49,-8 -80,-12 -55,-6 -57,-8 -57,-36 0,-42 -25,-95 -52,-109 -40,-22 -100,-28 -133,-14 -95,39 -166,255 -109,331 38,52 71,69 131,68 48,0 59,-4 77,-27 25,-32 52,-34 119,-10 40,14 47,21 47,43 0,35 -36,88 -79,117 -31,21 -45,23 -150,22 -88,0 -127,-5 -161,-18 z"
       id="path127"
       style="fill:#d40000;stroke-width:8.60221" />
    <path
       d="m 11350,2779 c -30,-5 -111,-23 -181,-39 -70,-17 -136,-30 -148,-30 -13,0 -21,-6 -21,-17 -1,-33 113,-648 121,-657 8,-9 507,71 522,83 6,6 -6,97 -19,142 -4,14 -23,12 -171,-17 -92,-19 -172,-34 -178,-34 -6,0 -16,25 -22,56 -9,52 -8,57 12,70 24,16 128,40 218,50 l 57,7 v 62 c 0,48 -4,64 -16,69 -30,12 -109,6 -192,-14 -122,-29 -122,-29 -122,29 v 48 l 155,33 155,33 v 59 c 0,54 -2,59 -26,68 -30,12 -68,11 -144,-1 z"
       id="path129"
       style="fill:#d40000;stroke-width:8.60221" />
    <path
       d="m 8958,2671 c -46,-29 -110,-106 -142,-168 -12,-25 -16,-63 -16,-173 0,-162 10,-192 82,-254 72,-62 141,-89 240,-94 76,-4 92,-2 142,21 75,34 149,106 186,180 27,55 30,69 30,158 0,122 -22,186 -88,260 -73,81 -121,99 -268,99 -116,0 -122,-1 -166,-29 z m 269,-141 c 47,-28 66,-73 67,-156 0,-60 -4,-80 -29,-129 -35,-68 -67,-94 -122,-102 -57,-8 -108,12 -140,54 -23,30 -28,48 -31,109 -5,96 16,161 69,208 35,33 45,36 97,36 39,0 67,-6 89,-20 z"
       id="path131"
       style="fill:#d40000;stroke-width:8.60221" />
    <path
       d="m 10600,2664 c -80,-13 -162,-23 -182,-24 h -38 v -76 -76 l 33,5 c 17,4 59,9 93,13 l 61,6 6,-38 c 3,-22 13,-141 23,-266 l 18,-228 h 98 98 l -5,43 c -8,64 -35,442 -35,482 v 35 h 85 86 l -3,73 -3,72 -95,2 c -60,1 -148,-7 -240,-23 z"
       id="path133"
       style="fill:#d40000;stroke-width:8.60221" />
    <path
       d="m 9586,2393 c -3,-137 -9,-290 -12,-340 l -7,-93 h 97 96 v 130 130 h 140 140 v 70 70 h -130 -130 v 71 71 l 138,-5 c 75,-3 146,-7 157,-9 18,-3 20,3 23,75 l 3,77 h -254 -254 z"
       id="path135"
       style="fill:#d40000;stroke-width:8.60221" />
  </g>
</svg>
