<svg width="17" height="16" viewBox="0 0 17 16" fill="none" xmlns="http://www.w3.org/2000/svg">
<path d="M16.1778 3.89503C16.1675 3.50778 16.0809 3.12637 15.9228 2.7727C15.7648 2.41902 15.5384 2.10005 15.2568 1.83409C14.9751 1.56813 14.6437 1.36042 14.2815 1.22289C13.9194 1.08535 13.5336 1.0207 13.1464 1.03265C11.594 1.07428 9.85891 2.74127 10.5435 4.98633C11.2441 7.28344 10.0775 8.77108 8.19273 8.88157C8.19273 8.88157 8.07423 8.88157 8.01097 8.88157C7.94772 8.88157 7.85084 8.87677 7.85084 8.87677C6.17905 8.85355 5.42082 7.79987 5.70986 5.37866C5.88921 3.87741 4.73385 2.84616 3.59931 2.88379C3.04641 2.90854 2.52511 3.14851 2.14676 3.55245C1.7684 3.95638 1.563 4.49225 1.57443 5.04558C1.60966 6.13129 2.17172 6.76942 3.45439 7.06886C5.38479 7.51964 6.25031 8.93201 5.42163 10.5093C5.16431 10.9921 5.04264 11.5357 5.06957 12.0821C5.0965 12.6286 5.27101 13.1575 5.57455 13.6127C6.15103 14.435 7.09581 15.0043 8.21194 14.9674C8.74521 14.9501 9.26457 14.793 9.71813 14.512C10.1717 14.231 10.5435 13.8359 10.7965 13.3661C11.0447 12.9065 11.437 11.9249 10.8669 10.5822C10.0927 8.75827 11.5003 7.18256 13.3322 6.95917C14.8943 6.76862 16.2314 5.53399 16.1778 3.89583V3.89503ZM8.18712 14.2564C7.72447 14.2717 7.26768 14.1494 6.87452 13.9051C6.48136 13.6607 6.1695 13.3053 5.97837 12.8837C5.78724 12.4621 5.72543 11.9932 5.80076 11.5365C5.87609 11.0798 6.08518 10.6556 6.40157 10.3177C6.71797 9.97985 7.12746 9.74337 7.57826 9.63821C8.02906 9.53305 8.50093 9.56394 8.93417 9.72698C9.36742 9.89001 9.74258 10.1779 10.0122 10.5541C10.2819 10.9304 10.4339 11.3782 10.449 11.8408C10.4693 12.4611 10.2424 13.064 9.81825 13.517C9.39408 13.97 8.80736 14.236 8.18712 14.2564" fill="#3F4FFE"/>
</svg>
